<svg width="228" height="228" viewBox="0 0 228 228" fill="none" xmlns="http://www.w3.org/2000/svg">
<mask id="mask0_391_984" style="mask-type:alpha" maskUnits="userSpaceOnUse" x="0" y="0" width="228" height="228">
<path d="M217.772 0H9.30649C4.16666 0 0 4.16666 0 9.30649V217.772C0 222.912 4.16666 227.078 9.30649 227.078H217.772C222.912 227.078 227.078 222.912 227.078 217.772V9.30649C227.078 4.16666 222.912 0 217.772 0Z" fill="#00B7B3"/>
</mask>
<g mask="url(#mask0_391_984)">
<path d="M217.772 0H9.30649C4.16666 0 0 4.16666 0 9.30649V217.772C0 222.912 4.16666 227.078 9.30649 227.078H217.772C222.912 227.078 227.078 222.912 227.078 217.772V9.30649C227.078 4.16666 222.912 0 217.772 0Z" fill="#C9FFE0"/>
<path d="M47.6595 76.5922C49.6759 75.6331 52.0071 75.5769 54.1283 76.2757L75.208 83.2194C86.2594 86.8599 96.7525 92.0156 106.387 98.5391L131.477 115.526C137.537 119.629 145.744 115.454 145.995 108.139L146.205 102.039C146.298 99.3388 146.682 96.6569 147.351 94.0389L147.764 92.423C148.6 89.1521 149.899 86.0176 151.62 83.1137L152.866 81.0119C154.684 77.946 157.851 75.9261 161.4 75.5726C162.861 75.4271 164.105 76.6396 164.049 78.1076L163.786 85.0786C163.42 94.7732 164.689 104.46 167.541 113.733L169.115 118.851C172.533 129.969 173.504 141.695 171.959 153.224L171.174 159.084C169.503 171.558 173.1 184.165 181.102 193.879L210.563 229.643L214.513 234.439C215.477 235.673 215.877 237.255 215.617 238.798L213.651 250.438C212.795 255.506 207.992 258.921 202.924 258.065L145.089 248.297C142.355 247.835 139.969 246.178 138.581 243.777L136.14 239.552L134.939 237.399C131.065 230.455 124.96 225.024 117.612 221.985C111.656 219.522 106.402 215.625 102.318 210.64L66.8754 167.802C64.1154 164.434 62.0483 160.553 60.7925 156.383C60.409 155.11 59.5696 154.022 58.4093 153.372L45.0847 145.906C42.7337 144.589 41.0757 142.309 40.5469 139.667L40.5372 139.618C39.9896 136.89 40.7007 134.061 42.4726 131.916C44.2625 129.749 46.9423 128.515 49.7525 128.563L63.0429 128.789L79.335 129.557C80.2075 129.598 80.4836 128.397 79.6806 128.053C76.8164 126.826 73.8417 125.874 70.7972 125.21L53.2043 121.374C50.0924 120.696 47.4709 118.476 46.5108 115.439C45.1161 111.027 47.3868 106.348 51.63 104.676C55.0099 103.345 58.7229 103.113 62.2421 104.012L77.7801 107.984C80.3374 108.824 81.5624 106.397 79.0874 105.339C78.5505 105.11 78.0077 104.893 77.4594 104.689L50.5625 94.6804C46.7224 93.2513 43.8805 89.9574 43.0304 85.9492C42.2276 82.1589 44.1126 78.28 47.6595 76.5922Z" fill="#FBC7AD"/>
<path d="M59.6252 122.774C56.975 122.196 55.077 119.89 54.9562 117.18C54.8991 115.9 54.8246 114.615 54.7155 113.336C54.2815 108.242 57.2905 102.746 62.2432 104.012C64.791 104.663 66.737 106.806 67.1061 109.41C67.3317 111.001 67.4905 112.6 67.3903 114.22C67.3296 115.202 67.2469 116.18 67.1582 117.154C66.8209 120.857 63.2575 123.565 59.6252 122.774Z" fill="#FAB795"/>
<path d="M134.939 237.399C131.065 230.456 124.96 225.024 117.612 221.985C116.031 221.331 114.503 220.569 113.03 219.72C116.799 221.635 129.824 221.751 142.468 214.255C144.918 212.803 136.825 219.974 134.159 226.485C131.793 232.265 134.939 237.399 134.939 237.399Z" fill="#FAB795"/>
<path d="M164.964 201.839C167.79 200.692 171.008 200.774 174.374 201.666C183.493 204.083 187.101 201.162 181.103 193.88C173.101 184.166 169.504 171.56 171.175 159.086C171.175 159.086 168.567 175.107 165.705 185.455C163.429 193.681 162.32 196.129 155.146 205.924C153.694 207.907 163.715 202.346 164.964 201.839Z" fill="#FAB795"/>
<path d="M136.805 136.699C136.664 139.341 142.476 140.492 143.223 137.954C145.021 131.841 145.37 127.839 145.422 126.047C145.442 125.362 145.086 124.741 144.519 124.357C142.539 123.016 137.152 126.249 137.112 128.64C137.072 131.1 136.958 133.845 136.805 136.699Z" fill="#FAB795"/>
<path d="M57.7282 91.8112C56.631 94.1746 57.4827 97.2557 59.9248 98.1644C62.0039 98.9381 64.3021 97.7796 64.9612 95.6613C66.1313 91.9007 67.3864 88.1664 68.5626 84.4077C69.0962 82.7025 68.1501 80.8952 66.4531 80.3361C63.604 79.3976 60.0214 82.9175 59.5605 85.8815C59.2466 87.9002 58.5995 89.9343 57.7282 91.8112Z" fill="#FAB795"/>
<path d="M107.882 177.851C112.358 175.915 118.407 172.376 114.353 169.667C107.325 164.971 97.546 159.184 92.5556 156.12C84.4581 151.15 67.4952 128.113 55.2416 128.656L49.3336 128.451C49.0434 128.441 48.7567 128.477 48.4674 128.505C48.1035 128.541 47.7634 128.582 47.4474 128.626C45.483 128.897 43.8921 130.176 42.6393 131.714C42.5862 131.779 42.5321 131.845 42.4772 131.911C40.7047 134.056 39.9941 136.889 40.5379 139.618L40.5449 139.655C41.0725 142.304 42.7334 144.589 45.0897 145.909L58.41 153.372C59.5707 154.022 60.4096 155.11 60.7936 156.383C62.0489 160.553 64.116 164.434 66.8762 167.802L74.3341 176.816C78.9894 182.443 101.179 180.75 107.882 177.851Z" fill="#FAB795"/>
<path d="M158.374 90.2416C158.459 92.6211 159.009 93.9978 161.256 94.8177C162.612 95.312 163.917 94.19 163.842 92.748C163.71 90.197 163.69 87.6382 163.786 85.0783C163.906 81.8942 160.732 79.982 159.486 82.9148C158.539 85.1461 158.288 87.847 158.374 90.2416Z" fill="#FCD2BD"/>
<path d="M125.73 176.821L59.2159 165.587C55.3577 164.935 52.7583 161.279 53.4099 157.421L76.0328 23.4756C76.6844 19.6174 80.3403 17.018 84.1985 17.6696L150.712 28.9036C154.571 29.5552 157.17 33.2111 156.518 37.0693L133.896 171.014C133.244 174.873 129.588 177.472 125.73 176.821Z" fill="#363538"/>
<path d="M120.677 31.5888L111.687 30.0705C111.077 29.9675 110.666 29.3894 110.769 28.7797L110.799 28.6064C110.902 27.9967 111.48 27.5857 112.089 27.6887L121.079 29.207C121.689 29.31 122.1 29.8881 121.997 30.4978L121.968 30.671C121.864 31.2807 121.287 31.6918 120.677 31.5888Z" fill="#1D1D1B"/>
<path d="M107.793 28.1887C107.904 27.5312 107.461 26.9081 106.804 26.797C106.146 26.686 105.523 27.1291 105.412 27.7866C105.301 28.4441 105.744 29.0672 106.402 29.1783C107.059 29.2893 107.682 28.8463 107.793 28.1887Z" fill="#1D1D1B"/>
<path d="M93.9491 167.861C97.0516 167.879 99.5816 165.379 99.5999 162.277C99.6183 159.175 97.1181 156.645 94.0155 156.627C90.913 156.608 88.3831 159.108 88.3647 162.211C88.3464 165.313 90.8466 167.843 93.9491 167.861Z" fill="#1D1D1B"/>
<path d="M94.9564 164.981L92.1711 164.51C91.5589 164.407 91.1435 163.823 91.2469 163.211L91.7173 160.426C91.8208 159.813 92.4042 159.399 93.017 159.502L95.8023 159.973C96.4146 160.076 96.83 160.66 96.7265 161.272L96.2561 164.057C96.1527 164.67 95.5692 165.084 94.9564 164.981ZM92.8702 160.372C92.7375 160.349 92.6101 160.44 92.5877 160.572L92.1173 163.358C92.0949 163.49 92.185 163.618 92.3181 163.64L95.1034 164.111C95.2361 164.133 95.3635 164.042 95.3859 163.91L95.8563 161.124C95.8787 160.992 95.7881 160.864 95.6555 160.842L92.8702 160.372Z" fill="#70706E"/>
<path d="M130.376 159.396L60.5494 147.603C59.6102 147.444 58.9769 146.554 59.1356 145.614L77.2806 38.1821C77.4392 37.2428 78.3292 36.6095 79.269 36.7683L149.096 48.5618C150.035 48.7204 150.669 49.6105 150.51 50.5502L132.365 157.982C132.206 158.922 131.316 159.555 130.376 159.396Z" fill="#1D1D1B"/>
<path d="M131.138 157.776L149.283 50.343C149.327 50.0824 149.15 49.8325 148.888 49.7884L79.0619 37.9949C78.8013 37.9509 78.5514 38.1281 78.5073 38.3893L60.3623 145.822C60.318 146.084 60.4944 146.332 60.7566 146.377L130.584 158.17C130.845 158.214 131.094 158.038 131.138 157.776Z" fill="white"/>
<path d="M123.603 93.3114L107.191 82.2487L87.9527 87.288L83.6316 112.863L119.281 118.887L123.603 93.3114Z" fill="#3CAA6B"/>
<path d="M83.9576 89.4154C82.6527 89.7572 81.3177 88.9764 80.9759 87.6715C80.6341 86.3665 81.4149 85.0316 82.7198 84.6898L106.435 78.4781C107.375 78.2318 108.376 78.402 109.182 78.9454L129.4 92.5742C130.519 93.3283 130.815 94.8465 130.06 95.9651C129.306 97.0833 127.788 97.3787 126.67 96.6248L108.284 84.2307C107.477 83.6873 106.476 83.517 105.536 83.7633L83.9576 89.4154Z" fill="#20683F"/>
<path d="M110.086 100.035L98.5105 98.0791L102.99 106.796L110.086 100.035Z" fill="#E6F5FF"/>
<path d="M95.2809 114.143L102.376 107.381L97.896 98.6648L95.2809 114.143Z" fill="#E6F5FF"/>
<path d="M102.764 108.136L95.6691 114.897L107.243 116.853L102.764 108.136Z" fill="#E6F5FF"/>
<path d="M103.378 107.551L107.858 116.267L110.473 100.79L103.378 107.551Z" fill="#E6F5FF"/>
<path d="M110.572 90.5453L106.142 92.534L109.673 95.8676L110.572 90.5453Z" fill="#E6F5FF"/>
<path d="M109.931 89.9404L101.971 88.5955L105.501 91.9291L109.931 89.9404Z" fill="#E6F5FF"/>
<path d="M108.869 96.2278L105.338 92.8941L100.909 94.8828L108.869 96.2278Z" fill="#E6F5FF"/>
<path d="M104.698 92.2899L101.168 88.9563L100.269 94.2786L104.698 92.2899Z" fill="#E6F5FF"/>
<path d="M40.8445 131.584C38.3089 134.516 38.7401 136.85 39.6555 139.234C42.1894 145.836 45.3991 147.319 46.6766 148.135C47.9675 148.961 51.6883 149.687 54.2028 147.488C56.0559 145.867 56.8558 143.892 56.9107 141.88C56.9877 139.044 53.2028 133.88 50.3184 130.687C49.2225 129.474 45.9792 128.597 44.0321 129.422C42.7023 129.986 41.6802 130.618 40.8445 131.584Z" fill="#FBC7AD"/>
<path d="M54.0633 140.832C54.0421 140.441 53.2223 138.971 52.5727 137.861C51.6901 136.353 50.3052 134.93 48.5632 134.794C46.8869 134.663 45.3407 135.647 44.2883 136.559C43.1727 137.526 42.6082 139.024 42.8741 140.477C42.876 140.488 42.878 140.498 42.8803 140.509C43.0587 141.457 43.4477 142.387 44.0545 143.209C44.9628 144.439 47.0913 146.867 48.3848 146.942C49.3321 146.996 51.5181 147.067 53.2074 144.933C55.053 142.602 54.1096 141.685 54.0633 140.832Z" fill="#FCD2BD"/>
<path d="M54.5057 104.622C53.5984 104.158 52.5204 104.173 51.6266 104.662L49.7178 105.708C47.4863 106.93 45.9665 109.138 45.6222 111.659L45.4913 112.619C44.9247 116.766 46.3361 120.891 49.219 123.811C49.7346 124.333 52.9343 125.75 55.5758 124.993C61.1956 123.382 62.0721 116.706 60.2035 112.098L59.289 109.842C58.3733 107.584 56.6755 105.731 54.5057 104.622Z" fill="#FBC7AD"/>
<path d="M56.9762 117.242C56.9086 116.397 56.4164 115.138 56.0071 114.214C55.4266 112.905 54.4756 111.768 53.2142 111.09C52.9331 110.939 52.6428 110.811 52.3468 110.707C51.9526 110.568 51.5473 110.473 51.1378 110.424C51.0854 110.418 51.0327 110.414 50.9801 110.412C49.8434 110.377 48.5558 111.361 47.7499 112.103C47.1493 112.657 46.7319 113.384 46.6047 114.191C46.563 114.453 46.5386 114.72 46.5313 114.989C46.5046 115.973 46.7098 116.987 47.1753 117.925C47.5694 118.719 48.4325 120.302 49.2804 121.371C49.81 122.039 50.6494 123.953 54.5015 121.871C56.9651 120.539 57.0406 118.045 56.9762 117.242Z" fill="#FCD2BD"/>
<path d="M51.7063 163.484C52.7437 161.753 54.5933 160.672 56.6105 160.619L58.0679 160.581C61.4272 160.492 64.7863 160.777 68.083 161.431L70.2215 161.856C71.9829 162.206 73.5102 163.294 74.4151 164.845C75.5891 166.857 75.5507 169.354 74.3151 171.329L74.2861 171.375C73.1592 173.177 71.1959 174.285 69.071 174.318L67.5229 174.343C63.8309 174.401 60.1453 174.008 56.5483 173.171L55.5314 172.935C53.1748 172.386 51.3922 170.456 51.0334 168.063L50.9323 167.39C50.7298 166.038 51.0032 164.657 51.7063 163.484Z" fill="#FBC7AD"/>
<path d="M74.5949 168.276L74.5889 167.285C74.5772 165.354 72.6435 163.735 70.3068 163.702L68.3752 163.674C66.7074 163.65 65.1439 164.229 64.0932 165.26C62.9082 166.422 62.7086 168.088 63.5858 169.497C64.3636 170.746 65.7465 171.678 67.3727 172.049L69.2561 172.478C71.5346 172.997 73.7957 171.881 74.263 170.006L74.5027 169.044C74.5659 168.792 74.5966 168.535 74.5949 168.276Z" fill="#FCD2BD"/>
</g>
</svg>
