<svg width="228" height="228" viewBox="0 0 228 228" fill="none" xmlns="http://www.w3.org/2000/svg">
<mask id="mask0_391_1027" style="mask-type:alpha" maskUnits="userSpaceOnUse" x="0" y="0" width="228" height="228">
<path d="M217.772 0H9.30649C4.16666 0 0 4.16666 0 9.30649V217.772C0 222.912 4.16666 227.078 9.30649 227.078H217.772C222.912 227.078 227.078 222.912 227.078 217.772V9.30649C227.078 4.16666 222.912 0 217.772 0Z" fill="#39A491"/>
</mask>
<g mask="url(#mask0_391_1027)">
<path d="M246.54 -19.4622H0V227.078H246.54V-19.4622Z" fill="#FFE684"/>
<path d="M107.916 85.9574C107.715 89.1313 110.7 91.9019 114.583 92.1476C118.462 92.395 121.773 90.022 121.975 86.848L125.163 36.488C125.367 33.3156 122.379 30.5435 118.499 30.2993C114.615 30.0553 111.306 32.425 111.104 35.6006L107.916 85.9574Z" fill="#F6B968"/>
<path d="M108.123 86.115L106.243 33.7915C106.348 32.0905 112.335 29.8808 113.838 28.9211L111.167 86.8172C111.125 87.5198 110.375 90.1324 110.543 90.7842C108.973 89.6287 108.007 87.948 108.123 86.115Z" fill="#EEAA59"/>
<path d="M94.9492 94.3392C94.8774 97.5166 97.9697 100.169 101.858 100.258C105.748 100.346 108.961 97.84 109.034 94.6626L110.464 43.4554C110.535 40.278 107.175 38.3871 103.288 38.2971C99.3992 38.2089 96.1898 40.713 96.1116 43.8906L94.9492 94.3392Z" fill="#F6B968"/>
<path d="M94.9577 94.1205L95.9523 42.4218C96.0572 40.7224 99.2664 40.6069 100.769 39.6472L97.1529 96.7603C97.1072 97.463 97.2081 98.1364 97.3772 98.7881C95.8074 97.6342 94.8414 95.9535 94.9577 94.1205Z" fill="#EEAA59"/>
<path d="M80.8211 96.0131C80.7445 99.1906 83.8417 101.843 87.7303 101.932C91.6205 102.021 94.8347 99.517 94.9064 96.3365L96.0658 45.8912C96.1423 42.7105 93.0485 40.0625 89.1566 39.9727C85.2712 39.8827 82.0586 42.3886 81.9836 45.5645L80.8211 96.0131Z" fill="#F6B968"/>
<path d="M125.431 14.2019C121.557 15.7254 76.3995 42.1834 75.3596 48.8684C74.4718 54.5468 76.1267 89.5828 76.7587 99.2148C76.7791 99.5173 76.8016 100.425 76.8016 100.425C76.9374 104.252 80.5592 107.223 84.8948 107.069C89.2272 106.916 92.631 103.694 92.4953 99.8679L91.067 59.6004C91.4848 58.262 91.8884 57.3397 92.2845 56.9743C94.8788 54.5834 116.899 43.2945 127.604 42.1977L125.91 14.0854C125.703 14.1233 125.533 14.163 125.431 14.2019Z" fill="#FFCC90"/>
<path d="M82.1561 101.051C82.1561 101.051 81.1314 101.604 79.7716 101.667C79.7685 101.668 79.7651 101.664 79.7605 101.67C79.7539 101.666 79.751 101.672 79.7476 101.668C78.3876 101.724 77.2836 101.264 77.2836 101.264C77.0156 98.0041 76.5877 93.1311 77.3711 91.2022C77.7176 90.3413 78.28 90.0518 78.8032 90.0573L78.8062 90.0508C78.8092 90.0459 78.8126 90.0522 78.8158 90.0521C78.8206 90.0519 78.8271 90.0517 78.83 90.0452L78.8303 90.0516C79.3466 90.0012 79.9551 90.2395 80.4399 91.0629C81.5304 92.9092 81.8881 97.7911 82.1561 101.051Z" fill="#FFE0BC"/>
<path d="M76.6626 47.3081C76.5188 47.5522 76.6089 47.8763 76.8535 48.0329L79.7186 49.8419C79.9664 49.9984 80.2847 49.9261 80.4237 49.6854C80.5675 49.4412 80.4774 49.1172 80.2296 48.9607L77.3725 47.1514C77.1229 46.9902 76.8062 47.0624 76.6626 47.3081Z" fill="#FFE0BC"/>
<path d="M75.5983 49.1387C75.4563 49.3844 75.5416 49.7086 75.7879 49.8683L78.6481 51.6743C78.899 51.8291 79.2143 51.7617 79.3564 51.5177C79.4969 51.2736 79.41 50.9495 79.1622 50.793L76.3019 48.9822C76.0525 48.8258 75.7358 48.898 75.5983 49.1387Z" fill="#FFE0BC"/>
<path d="M35.1057 58.2557L25.386 125.383L172.719 146.717L182.439 79.5899L35.1057 58.2557Z" fill="#C1E4EA"/>
<path d="M167.181 140.753L32.3649 121.234L40.6168 64.2354L175.433 83.7548L167.181 140.753ZM38.2254 116.855L162.803 134.892L169.573 88.1321L44.9956 70.0945L38.2254 116.855Z" fill="#2A7B6D"/>
<path d="M70.0728 97.5974C69.3865 102.356 64.9715 105.652 60.2114 104.964C55.4545 104.275 52.1553 99.8612 52.8447 95.101C53.5326 90.3424 57.9492 87.0462 62.7061 87.7358C67.4646 88.4237 70.7623 92.8388 70.0728 97.5974Z" fill="#2A7B6D"/>
<path d="M154.952 109.888C154.262 114.646 149.847 117.943 145.091 117.255C140.332 116.565 137.034 112.153 137.722 107.391C138.412 102.634 142.825 99.3368 147.584 100.026C152.342 100.714 155.64 105.129 154.952 109.888Z" fill="#2A7B6D"/>
<path d="M124 105.403C122.392 116.507 112.089 124.199 100.989 122.592C89.8868 120.984 82.1903 110.686 83.7986 99.5825C85.4052 88.4787 95.709 80.7865 106.809 82.3933C117.91 84.0017 125.607 94.3007 124 105.403Z" fill="#2A7B6D"/>
<path d="M125.912 14.0832L127.605 42.1955C129.822 41.9709 131.567 42.1705 132.538 42.9895C139.958 49.2429 139.363 54.5965 134.485 63.102C131.638 68.0671 127.713 73.0063 123.143 82.3255C113.062 102.898 120.437 103.41 124.287 105.67C131.209 109.74 141.598 84.2393 150.693 77.0024C162.99 67.223 179.337 55.0396 179.337 55.0396L291.084 47.2142L291.084 3.24336C291.084 3.24336 133.85 12.5873 125.912 14.0832Z" fill="#FFCC90"/>
<path d="M129.021 101.604C129.021 101.604 126.986 100.776 124.758 99.1918C124.751 99.1888 124.751 99.184 124.74 99.1828C124.736 99.1733 124.725 99.1737 124.718 99.1643C122.498 97.5795 121.052 95.9238 121.052 95.9238C122.945 93.2562 125.728 89.2319 128.361 88.7823C129.529 88.5788 130.642 89.0447 131.476 89.6761L131.484 89.6742C131.493 89.6739 131.494 89.6803 131.5 89.6865C131.508 89.691 131.515 89.6956 131.525 89.6952L131.522 89.7017C132.388 90.2855 133.193 91.1842 133.387 92.358C133.819 94.9897 130.919 98.9396 129.021 101.604Z" fill="#FFE0BC"/>
<path d="M135.702 73.5473C135.56 73.7914 135.848 74.2304 136.355 74.5332L142.188 78.0209C142.691 78.3239 143.219 78.371 143.363 78.1317C143.513 77.8905 143.217 77.4486 142.707 77.1458L136.883 73.6594C136.38 73.3532 135.849 73.3063 135.702 73.5473Z" fill="#FFE0BC"/>
<path d="M134.618 75.368C134.471 75.6123 134.763 76.0543 135.263 76.3558L141.092 79.8421C141.599 80.145 142.13 80.1951 142.272 79.9542C142.416 79.7101 142.123 79.2697 141.616 78.9668L135.786 75.4774C135.285 75.1759 134.754 75.1274 134.618 75.368Z" fill="#FFE0BC"/>
<path d="M149.673 184.161C148.441 187.144 145.029 188.566 142.044 187.337C139.061 186.108 137.64 182.69 138.869 179.707L147.334 159.182C148.566 156.196 151.98 154.777 154.963 156.006C157.945 157.235 159.367 160.65 158.139 163.636L149.673 184.161Z" fill="#F6B968"/>
<path d="M127.821 199.321C125.077 201.017 114.528 204.418 112.826 201.674L109.845 199.345C108.146 196.601 110.927 195.766 113.671 194.067L140.55 177.698C143.294 176 146.893 176.849 148.592 179.593C150.293 182.337 149.444 185.937 146.7 187.638L127.821 199.321Z" fill="#F6B968"/>
<path d="M125.278 187.135C123.704 189.951 120.143 190.958 117.327 189.385C114.51 187.808 113.503 184.247 115.079 181.431L125.917 162.052C127.49 159.235 131.051 158.228 133.868 159.801C136.684 161.375 137.691 164.936 136.115 167.753L125.278 187.135Z" fill="#F6B968"/>
<path d="M101.785 199.596C98.8572 200.959 87.9806 203.083 86.6176 200.159L83.9354 197.493C82.5723 194.567 78.1698 185.101 80.8851 186.845C94.6946 195.721 116.987 179.637 116.987 179.637C119.912 178.277 123.388 179.544 124.748 182.471C126.111 185.396 124.84 188.871 121.914 190.231L101.785 199.596Z" fill="#F6B968"/>
<path d="M108.115 194.186L126.968 182.873C127.612 182.486 128.143 181.997 128.568 181.444C129.144 180.917 129.621 180.276 129.944 179.528L136.096 162.164C136.522 161.18 127.098 178.078 127.098 178.078L98.1429 197.337C101.838 196.824 106.434 195.192 108.115 194.186Z" fill="#EEAA59"/>
<path d="M139.564 184.409C138.332 187.392 134.918 188.814 131.935 187.585C128.952 186.353 127.53 182.938 128.759 179.956L137.223 159.427C138.455 156.445 141.87 155.022 144.853 156.255C147.835 157.48 149.257 160.898 148.027 163.884L139.564 184.409Z" fill="#F6B968"/>
<path d="M117.708 199.566C114.964 201.265 104.417 204.666 102.719 201.922L99.7371 199.593C98.0387 196.845 100.82 196.014 103.564 194.312L130.443 177.947C133.187 176.248 136.786 177.094 138.484 179.838C140.186 182.585 139.337 186.185 136.593 187.883L117.708 199.566Z" fill="#F6B968"/>
<path d="M117.701 194.47L136.553 183.157C137.197 182.773 137.729 182.281 138.157 181.728C138.73 181.204 139.206 180.56 139.532 179.812L148.076 160.09C148.502 159.109 148.597 158.085 148.447 157.106L136.683 178.362L107.728 197.621C111.424 197.107 116.02 195.474 117.701 194.47Z" fill="#EEAA59"/>
<path d="M144.776 200.4C141.795 203.04 136.835 202.311 133.695 198.765C130.558 195.223 131.119 190.628 134.102 187.988L158.991 167.453C162.723 164.779 167.832 162.843 170.555 166.118C174.074 170.352 170.38 175.158 166.188 179.387L144.776 200.4Z" fill="#FFCC90"/>
<path d="M134.102 187.988C130.858 189.76 101.049 196.551 97.2805 191.342C92.3384 184.528 93.9604 180.142 99.8449 173.999C103.281 170.412 107.62 167.074 113.417 160.18C126.21 144.966 120.437 142.531 117.337 140.283C111.699 136.19 98.2785 154.711 89.1019 158.904C76.7016 164.567 60.3839 171.409 60.3839 171.409L-65.4692 140.283L-65.4691 184.429C-65.4691 184.429 93.6604 217.548 97.2436 217.076C100.469 216.652 135.624 207.299 144.678 200.498L134.877 187.222C134.585 187.597 134.327 187.864 134.102 187.988Z" fill="#FFCC90"/>
<path d="M170.233 173.468C170.233 173.468 169.71 172.506 168.709 171.648C168.706 171.645 168.703 171.645 168.702 171.639C168.696 171.639 168.696 171.633 168.689 171.633C167.687 170.778 166.637 170.401 166.637 170.401C164.946 172.289 162.395 175.089 162.107 176.772C161.976 177.52 162.274 178.042 162.673 178.353L162.67 178.357C162.673 178.363 162.676 178.359 162.68 178.366C162.683 178.369 162.686 178.369 162.686 178.375L162.69 178.372C163.059 178.716 163.627 178.931 164.374 178.704C166.043 178.203 168.542 175.355 170.233 173.468Z" fill="#FFE0BC"/>
<path d="M118.232 147.701C118.232 147.701 117.249 146.313 115.657 144.913C115.654 144.907 115.651 144.91 115.647 144.901C115.641 144.898 115.638 144.891 115.628 144.889C114.043 143.494 112.536 142.698 112.536 142.698C110.861 144.596 108.323 147.41 108.446 149.473C108.501 150.392 109.051 151.147 109.674 151.664L109.674 151.671C109.678 151.677 109.681 151.677 109.688 151.683C109.691 151.686 109.698 151.692 109.701 151.699L109.704 151.695C110.296 152.244 111.118 152.691 112.038 152.628C114.096 152.489 116.56 149.602 118.232 147.701Z" fill="#FFE0BC"/>
</g>
</svg>
