<svg width="228" height="228" viewBox="0 0 228 228" fill="none" xmlns="http://www.w3.org/2000/svg">
<mask id="mask0_388_554" style="mask-type:alpha" maskUnits="userSpaceOnUse" x="0" y="0" width="228" height="228">
<rect width="227.078" height="227.078" rx="9.30649" fill="#D9D9D9"/>
</mask>
<g mask="url(#mask0_388_554)">
<rect width="227.078" height="227.078" rx="9.30649" fill="#D9D9D9"/>
<path d="M358.949 -122.979L-124.028 -93.2936C-129.158 -92.9783 -133.061 -88.5638 -132.746 -83.4337L-103.06 399.543C-102.745 404.673 -98.3304 408.576 -93.2003 408.261L389.776 378.575C394.907 378.26 398.81 373.845 398.494 368.715L368.809 -114.261C368.493 -119.392 364.079 -123.295 358.949 -122.979Z" fill="#FFEED1"/>
<mask id="mask1_388_554" style="mask-type:luminance" maskUnits="userSpaceOnUse" x="-133" y="-123" width="532" height="532">
<path d="M358.949 -122.979L-124.028 -93.2936C-129.158 -92.9783 -133.061 -88.5638 -132.746 -83.4337L-103.06 399.543C-102.745 404.673 -98.3304 408.576 -93.2003 408.261L389.776 378.575C394.907 378.26 398.81 373.845 398.494 368.715L368.809 -114.261C368.493 -119.392 364.079 -123.295 358.949 -122.979Z" fill="white"/>
</mask>
<g mask="url(#mask1_388_554)">
<path d="M-95.2239 304.516C-99.8191 304.798 -103.901 301.69 -104.398 297.113C-106.118 281.285 -106.443 246.432 -77.8 237.626C-40.4085 226.132 -37.6436 281.795 -37.6436 281.795C-37.6436 281.795 -35.89 262.638 -26.2653 261.39C-22.698 260.927 -19.5278 262.474 -17.0197 265.111C-11.5878 270.82 0.622169 276.905 7.55292 280.656C10.0619 282.013 12.1938 284.562 13.4316 288.938C14.7878 293.732 10.6544 298.008 5.68174 298.314L-95.2239 304.516Z" fill="#3E6038"/>
</g>
<mask id="mask2_388_554" style="mask-type:luminance" maskUnits="userSpaceOnUse" x="-133" y="-123" width="532" height="532">
<path d="M358.949 -122.979L-124.028 -93.2936C-129.158 -92.9783 -133.061 -88.5638 -132.746 -83.4337L-103.06 399.543C-102.745 404.673 -98.3304 408.576 -93.2003 408.261L389.776 378.575C394.907 378.26 398.81 373.845 398.494 368.715L368.809 -114.261C368.493 -119.392 364.079 -123.295 358.949 -122.979Z" fill="white"/>
</mask>
<g mask="url(#mask2_388_554)">
<path d="M460.123 10.8801C450.571 11.4672 441.348 12.3189 432.616 13.3859C430.434 13.6526 428.242 13.1314 426.305 12.0926C409.956 3.32682 378.68 -1.3904 343.175 0.791893C291.674 3.95734 250.781 20.4395 251.837 37.6067C252.011 40.4396 250.457 43.7898 247.631 44.0497C204.324 48.0305 172.507 54.7065 172.851 60.3078C173.258 66.9263 218.421 69.5363 273.725 66.137C287.014 65.3203 299.676 64.2302 311.244 62.9546C311.809 62.8924 312.377 62.8816 312.943 62.9203C323.542 63.6438 335.028 63.6942 346.997 62.9585C366.426 61.7643 384.342 58.6744 399.07 54.3676C400.255 54.021 401.492 53.8992 402.722 54.0149C419.671 55.6102 440.441 55.89 462.806 54.5153C518.954 51.0642 563.871 38.4983 563.13 26.4489C562.389 14.3996 516.271 7.42904 460.123 10.8801Z" fill="white"/>
</g>
<mask id="mask3_388_554" style="mask-type:luminance" maskUnits="userSpaceOnUse" x="-133" y="-123" width="532" height="532">
<path d="M358.949 -122.979L-124.028 -93.2936C-129.158 -92.9783 -133.061 -88.5638 -132.746 -83.4337L-103.06 399.543C-102.745 404.673 -98.3304 408.576 -93.2003 408.261L389.776 378.575C394.907 378.26 398.81 373.845 398.494 368.715L368.809 -114.261C368.493 -119.392 364.079 -123.295 358.949 -122.979Z" fill="white"/>
</mask>
<g mask="url(#mask3_388_554)">
<path d="M82.4304 127.504C75.6387 127.921 69.0697 128.518 62.8307 129.263C60.6476 129.524 58.4614 128.999 56.5003 128.005C44.1417 121.741 21.2896 118.408 -4.5799 119.998C-42.8967 122.353 -73.3215 134.616 -72.5365 147.388C-72.407 149.495 -73.5631 151.988 -75.6658 152.181C-107.886 155.143 -131.558 160.11 -131.302 164.278C-131 169.202 -97.3977 171.144 -56.2512 168.615C-46.447 168.012 -37.1022 167.21 -28.5544 166.272C-27.9901 166.21 -27.4218 166.199 -26.8554 166.237C-19.0303 166.761 -10.5606 166.792 -1.73703 166.25C12.5164 165.374 25.6763 163.127 36.5451 159.992C37.732 159.649 38.9686 159.527 40.1988 159.64C52.7201 160.788 67.9944 160.978 84.4259 159.968C126.2 157.401 159.62 148.052 159.069 139.087C158.518 130.122 124.206 124.936 82.4304 127.504Z" fill="white"/>
</g>
<mask id="mask4_388_554" style="mask-type:luminance" maskUnits="userSpaceOnUse" x="-133" y="-123" width="532" height="532">
<path d="M358.949 -122.979L-124.028 -93.2936C-129.158 -92.9783 -133.061 -88.5638 -132.746 -83.4337L-103.06 399.543C-102.745 404.673 -98.3304 408.576 -93.2003 408.261L389.776 378.575C394.907 378.26 398.81 373.845 398.494 368.715L368.809 -114.261C368.493 -119.392 364.079 -123.295 358.949 -122.979Z" fill="white"/>
</mask>
<g mask="url(#mask4_388_554)">
</g>
<mask id="mask5_388_554" style="mask-type:luminance" maskUnits="userSpaceOnUse" x="-133" y="-122" width="532" height="532">
<path d="M359.01 -121.976L-123.966 -92.2902C-129.096 -91.9749 -133 -87.5604 -132.684 -82.4303L-102.998 400.546C-102.683 405.677 -98.2687 409.58 -93.1385 409.264L389.838 379.579C394.968 379.263 398.871 374.849 398.556 369.719L368.87 -113.258C368.555 -118.388 364.141 -122.291 359.01 -121.976Z" fill="white"/>
</mask>
<g mask="url(#mask5_388_554)">
<path d="M93.5795 181.094C89.8135 172.18 112.647 172.684 115.536 172.573C118.424 172.462 133.157 200.178 135.191 210.617C136.149 215.534 133.534 227.231 123.922 224.609C113.129 221.666 104.812 207.684 93.5795 181.094Z" fill="#F2B292"/>
<path d="M77.9079 121.89C88.66 122.436 100.607 133.623 107.454 144.011C112.275 151.323 117.247 163.628 119.768 170.271C120.855 173.136 120.366 176.352 118.011 178.312C114.435 181.29 107.973 185.292 98.1633 186.493C94.8579 186.898 91.7514 185.076 90.1769 182.142C86.6827 175.63 80.4994 163.256 76.7493 150.824C71.2997 132.751 70.7507 121.526 77.9079 121.89Z" fill="#DF9A3A"/>
<path d="M127.639 225.023C135.965 226.344 175.477 207.289 185.042 188.325C188.796 180.882 180.514 178.915 168.303 183.458C152.738 189.25 128.898 203.116 120.955 207.837C119.203 208.879 117.82 210.47 117.531 212.488C116.95 216.55 117.549 223.422 127.639 225.023Z" fill="#F2B292"/>
<mask id="mask6_388_554" style="mask-type:luminance" maskUnits="userSpaceOnUse" x="165" y="151" width="51" height="49">
<path d="M182.103 197.775C178.097 201.089 172.146 200.695 169.235 196.388C168.186 194.835 167.098 193.118 166.072 191.31C163.749 187.219 165.726 182.264 169.712 179.764C172.068 178.285 174.741 176.477 177.3 174.456C185.387 168.069 193.024 159.806 196.624 156.963C203.715 151.363 207.763 150.815 208.501 151.798C209.068 152.554 209.323 153.288 209.391 153.959C209.521 155.235 210.719 157.529 211.23 158.705C211.88 160.205 212.971 162.994 213.628 164.49C213.75 164.767 213.836 165.081 213.871 165.435C214.004 166.766 214.599 168.162 215.327 169.285C215.86 170.106 216.047 171.279 214.984 172.835C210.18 179.864 197.307 186.372 189.73 191.816C187.277 193.577 184.545 195.755 182.103 197.775Z" fill="white"/>
</mask>
<g mask="url(#mask6_388_554)">
<path d="M182.103 197.775C178.097 201.089 172.146 200.695 169.235 196.388C168.186 194.835 167.098 193.118 166.072 191.31C163.749 187.219 165.726 182.264 169.712 179.764C172.068 178.285 174.741 176.477 177.3 174.456C185.387 168.069 193.024 159.806 196.624 156.963C203.715 151.363 207.763 150.815 208.501 151.798C209.068 152.554 209.323 153.288 209.391 153.959C209.521 155.235 210.719 157.529 211.23 158.705C211.88 160.205 212.971 162.994 213.628 164.49C213.75 164.767 213.836 165.081 213.871 165.435C214.004 166.766 214.599 168.162 215.327 169.285C215.86 170.106 216.047 171.279 214.984 172.835C210.18 179.864 197.307 186.372 189.73 191.816C187.277 193.577 184.545 195.755 182.103 197.775Z" fill="#ED7F24"/>
</g>
<mask id="mask7_388_554" style="mask-type:luminance" maskUnits="userSpaceOnUse" x="165" y="151" width="51" height="49">
<path d="M182.103 197.775C178.097 201.089 172.146 200.695 169.235 196.388C168.186 194.835 167.098 193.118 166.072 191.31C163.749 187.219 165.726 182.264 169.712 179.764C172.068 178.285 174.741 176.477 177.3 174.456C185.387 168.069 193.024 159.806 196.624 156.963C203.715 151.363 207.763 150.815 208.501 151.798C209.068 152.554 209.323 153.288 209.391 153.959C209.521 155.235 210.719 157.529 211.23 158.705C211.88 160.205 212.971 162.994 213.628 164.49C213.75 164.767 213.836 165.081 213.871 165.435C214.004 166.766 214.599 168.162 215.327 169.285C215.86 170.106 216.047 171.279 214.984 172.835C210.18 179.864 197.307 186.372 189.73 191.816C187.277 193.577 184.545 195.755 182.103 197.775Z" fill="white"/>
</mask>
<g mask="url(#mask7_388_554)">
<path d="M193.956 174.806C191.721 170.166 193.816 164.6 198.556 162.586C202.683 160.831 207.472 162.375 209.799 166.209L211.019 168.22C213.687 172.617 212.202 178.349 207.734 180.896C203.134 183.519 197.275 181.695 194.977 176.925L193.956 174.806Z" fill="#EA6C25"/>
</g>
<path d="M207.888 156.924C209.529 153.127 205.709 146.178 206.337 142.09C206.794 139.121 206.778 136.122 205.492 134.29C204.968 133.544 200.415 128.669 200.204 127.783C199.586 125.173 198.323 122.633 195.782 121.951C195.553 121.89 195.306 121.896 195.081 121.968C192.575 122.773 191.437 125.371 190.945 128.008C190.778 128.904 186.466 133.994 185.979 134.764C184.783 136.657 184.913 139.654 185.513 142.598C186.338 146.65 182.86 153.775 184.684 157.486C186.42 161.02 189.574 163.945 192.197 165.937C194.786 167.903 198.302 167.817 200.793 165.729C203.316 163.612 206.325 160.537 207.888 156.924Z" fill="#729E53"/>
<path d="M203.284 176.525C198.958 169.141 197.197 159.266 195.917 141.976C195.476 159.308 194.196 169.256 190.232 176.842C187.867 181.369 179.141 187.154 179.173 194.056C179.22 204.119 188.354 204.69 193.935 207.127C194.742 207.479 200.266 207.345 201.054 206.954C206.512 204.249 215.607 203.237 215.165 193.183C214.862 186.286 205.867 180.932 203.284 176.525Z" fill="#F5ECE1"/>
<path d="M206.614 158.463C207.734 157.581 209.21 156.861 210.45 157.564C210.802 157.764 211.145 158.054 211.428 158.473C212.523 160.096 210.903 161.88 210.444 162.387C209.985 162.895 204.608 171.007 200.648 171.696C198.429 172.082 197.098 165.946 206.614 158.463Z" fill="#ED7F24"/>
<path d="M208.215 164.583C209.555 163.082 211.841 162.086 213.329 163.44C214.443 164.452 214.002 167.036 213.481 167.79C212.959 168.544 208.399 174.997 205.605 175.005C203.776 175.01 203.291 170.102 208.215 164.583Z" fill="#ED7F24"/>
<mask id="mask8_388_554" style="mask-type:luminance" maskUnits="userSpaceOnUse" x="195" y="151" width="15" height="17">
<path d="M208.356 157.165C208.356 157.165 199.003 168.34 196.32 167.909C193.639 167.48 196.798 157.706 199.921 154.564C203.044 151.421 206.697 150.768 208.499 151.798C210.302 152.828 209.348 156.009 208.356 157.165Z" fill="white"/>
</mask>
<g mask="url(#mask8_388_554)">
<path d="M208.356 157.165C208.356 157.165 199.003 168.34 196.32 167.909C193.639 167.48 196.798 157.706 199.921 154.564C203.044 151.421 206.697 150.768 208.499 151.798C210.302 152.828 209.348 156.009 208.356 157.165Z" fill="#ED7F24"/>
</g>
<mask id="mask9_388_554" style="mask-type:luminance" maskUnits="userSpaceOnUse" x="195" y="151" width="15" height="17">
<path d="M208.356 157.165C208.356 157.165 199.003 168.34 196.32 167.909C193.639 167.48 196.798 157.706 199.921 154.564C203.044 151.421 206.697 150.768 208.499 151.798C210.302 152.828 209.348 156.009 208.356 157.165Z" fill="white"/>
</mask>
<g mask="url(#mask9_388_554)">
<path d="M195.547 163.281C197.118 161.17 199.182 162.119 197.801 164.359C197.474 164.891 197.102 165.438 196.682 165.997C196.16 166.692 195.117 166.613 194.653 165.879C194.365 165.424 194.387 164.84 194.708 164.408L195.547 163.281Z" fill="#EA6C25"/>
</g>
<path d="M184.076 173.343C183.394 171.004 183.387 168.463 184.525 166.309C185.681 164.12 187.279 161.531 188.757 160.639C191.487 158.99 199.386 153.773 200.291 156.909C200.96 159.223 195.828 165.224 194.277 166.521C192.725 167.817 194.346 171.389 191.895 175.071C186.503 183.172 185.694 178.893 184.076 173.343Z" fill="#ED7F24"/>
<path d="M171.798 204.169C172.655 205.281 174.264 205.469 175.356 204.588C176.467 203.693 176.622 202.054 175.728 200.943C173.131 197.717 168.16 191.167 165.755 185.511C165.019 183.779 163.054 182.727 161.294 183.391C160.365 183.742 159.771 184.546 160.06 185.496C160.752 187.778 163.223 193.043 171.798 204.169Z" fill="#EF9B44"/>
<path d="M211.033 171.545C212.321 169.069 215.97 168.297 215.887 171.087C215.8 174.065 212.704 179.343 209.824 179.145C208.616 179.062 208.942 175.562 211.033 171.545Z" fill="#ED7F24"/>
<path d="M57.0774 72.3846C82.8238 55.3319 99.3535 34.9526 93.9976 26.8662C88.6417 18.7798 63.4283 26.0485 37.6819 43.1013C11.9355 60.154 -4.59422 80.5333 0.761679 88.6197C6.11758 96.7061 31.331 89.4374 57.0774 72.3846Z" fill="#EDB390"/>
<path d="M64.2799 36.6411C60.9145 27.5442 48.0088 24.1155 35.3242 28.6257C16.9472 35.1603 15.8821 54.4615 19.2465 63.5585C22.6118 72.6554 34.8833 66.2403 47.5097 61.5696C60.1372 56.8998 67.6453 45.738 64.2799 36.6411Z" fill="#EDB390"/>
<path d="M57.2073 74.4913C82.9537 57.4386 99.4834 37.0593 94.1275 28.9729C88.7716 20.8865 63.5582 28.1552 37.8118 45.208C12.0654 62.2607 -4.46433 82.64 0.89157 90.7264C6.24747 98.8128 31.4609 91.5441 57.2073 74.4913Z" fill="#99523C"/>
<path d="M50.1084 297.584C52.3994 299.777 55.775 300.201 58.718 299.019C79.823 290.542 163.927 254.617 155.918 223.424C150.024 200.468 59.5448 237.705 33.2285 249.078C29.0667 250.876 26.9552 255.405 28.4329 259.691C31.8379 269.568 39.0001 286.95 50.1084 297.584Z" fill="#192637"/>
<path d="M131.032 222.595C135.547 216.515 158.146 213.443 160.487 228.017C163.629 247.574 142.329 292.706 137.769 309.697C137.373 311.172 136.88 313.866 136.419 316.651C135.562 321.83 130.701 325.407 125.526 324.531L122.876 324.082C118.357 323.317 115.066 319.376 115.137 314.793C115.192 311.23 115.26 307.435 115.322 305.66C116.137 282.312 111.104 249.429 131.032 222.595Z" fill="#192637"/>
<path d="M33.0245 121.003L57.5239 120.145C57.5239 120.145 86.5369 118.64 89.9879 130.294C94.6177 145.924 89.6989 167.464 89.6007 179.709C89.4658 196.519 92.6647 231.046 96.062 250.224C96.9909 255.468 93.8188 260.772 88.602 261.841C71.0731 265.435 33.8815 272.045 15.7849 267.674C12.9272 266.984 10.977 264.513 10.4559 261.619C10.0541 259.388 9.63991 256.758 9.49853 254.732C7.67288 228.585 14.1546 203.099 11.3688 183.987C7.06609 154.479 -21.2049 128.231 33.0245 121.003Z" fill="#E3BF50"/>
<path d="M49.0479 134.597C49.1016 135.47 48.4378 136.22 47.5651 136.274C46.6924 136.328 45.9418 135.664 45.8881 134.791C45.8345 133.919 46.4982 133.168 47.3709 133.114C48.2436 133.061 48.9943 133.724 49.0479 134.597Z" fill="white"/>
<path d="M99.7047 229.556C100.248 229.057 100.855 228.623 101.527 228.319C105.755 226.404 122.249 220.365 126.684 240.313C127.944 245.977 94.7549 298.523 85.3405 313.384C84.4007 314.867 82.4627 318.223 80.7093 321.297C78.6089 324.979 74.3013 326.808 70.2014 325.73L64.7653 324.299C59.6048 322.941 56.6393 317.53 58.2456 312.442C59.9333 307.095 62.0177 300.418 63.6034 295.098C70.2025 272.95 74.5221 252.668 99.7047 229.556Z" fill="#273548"/>
<path d="M50.421 144.026C50.4746 144.899 49.8109 145.649 48.9382 145.703C48.0655 145.756 47.3148 145.093 47.2612 144.22C47.2075 143.347 47.8713 142.597 48.744 142.543C49.6167 142.489 50.3673 143.153 50.421 144.026Z" fill="white"/>
<path d="M50.0827 125.205C51.7264 124.109 53.8885 125.489 53.5873 127.441C53.2365 129.715 50.1161 130.086 49.2416 127.958C48.8302 126.957 49.1822 125.805 50.0827 125.205Z" fill="#DE903D"/>
<mask id="mask10_388_554" style="mask-type:luminance" maskUnits="userSpaceOnUse" x="33" y="84" width="25" height="43">
<path d="M57.4484 117.026C57.4975 119.05 56.9345 121.09 55.4466 122.462C53.597 124.169 50.5602 126.218 46.3627 126.602C42.0542 126.997 38.6047 125.447 36.2893 123.873C34.0033 122.32 33.3408 119.434 33.704 116.694C34.2463 112.603 34.5826 107.867 34.4359 102.618C34.3725 100.352 34.2247 98.1883 34.0155 96.1358C33.4213 90.3039 37.6056 84.7887 43.4641 84.5834C44.7257 84.5392 45.9873 84.495 47.2489 84.4507C52.425 84.2693 56.7535 88.3484 56.879 93.5261L57.4484 117.026Z" fill="white"/>
</mask>
<g mask="url(#mask10_388_554)">
<path d="M57.4484 117.026C57.4974 119.05 57.0162 121.145 55.6061 122.598C54.0227 124.229 51.3979 126.105 47.3477 126.476C42.8974 126.884 39.0496 125.257 36.462 123.667C34.1079 122.221 33.3407 119.436 33.7038 116.697C34.2462 112.605 34.5827 107.869 34.4359 102.619C34.3725 100.353 34.2247 98.1893 34.0155 96.1368C33.4213 90.3049 37.6056 84.7897 43.4641 84.5844C44.7257 84.5402 45.9873 84.496 47.2489 84.4517C52.425 84.2703 56.7535 88.3494 56.8789 93.5271L57.4484 117.026Z" fill="#F2B292"/>
</g>
<mask id="mask11_388_554" style="mask-type:luminance" maskUnits="userSpaceOnUse" x="33" y="84" width="25" height="43">
<path d="M57.4484 117.026C57.4975 119.05 56.9345 121.09 55.4466 122.462C53.597 124.169 50.5602 126.218 46.3627 126.602C42.0542 126.997 38.6047 125.447 36.2893 123.873C34.0033 122.32 33.3408 119.434 33.704 116.694C34.2463 112.603 34.5826 107.867 34.4359 102.618C34.3725 100.352 34.2247 98.1883 34.0155 96.1358C33.4213 90.3039 37.6056 84.7887 43.4641 84.5834C44.7257 84.5392 45.9873 84.495 47.2489 84.4507C52.425 84.2693 56.7535 88.3484 56.879 93.5261L57.4484 117.026Z" fill="white"/>
</mask>
<g mask="url(#mask11_388_554)">
<path d="M52.6833 99.4739C47.0196 99.6114 42.8034 104.858 45.6211 109.773C48.498 114.791 53.4149 119.543 61.53 118.203C72.8166 116.338 69.089 107.684 65.8965 102.727C64.3976 100.4 61.7081 99.2549 58.9409 99.322L52.6833 99.4739Z" fill="#B9484F"/>
</g>
<path d="M76.8314 77.8149C76.435 61.4877 65.8429 48.5012 53.1734 48.8088C40.5039 49.1165 30.5546 62.6018 30.9511 78.929C31.3475 95.2563 41.9396 108.243 54.6091 107.935C67.2786 107.627 77.2279 94.1422 76.8314 77.8149Z" fill="#F2B292"/>
<path d="M70.0901 44.9701C68.6025 43.8822 66.7056 43.5821 64.8852 43.8696C41.8859 47.5018 30.2336 60.9321 24.1599 68.675C23.3549 69.7012 22.768 70.8869 22.5334 72.1698C21.3582 78.5954 21.8685 86.273 25.605 93.0255C28.4827 98.2263 35.1036 95.4218 34.9071 89.4812C34.7836 85.7482 34.448 82.2479 33.9806 79.0097C33.52 75.8191 37.3591 74.0301 37.5434 77.2485C37.8521 82.6486 38.7357 78.7258 39.2167 71.3479C39.6976 63.97 39.3619 55.4129 49.1557 56.8811C52.9646 57.4525 56.7599 60.1261 60.0617 57.6718C63.3635 55.2174 69.8845 57.5654 70.9066 61.6299C71.9287 65.6943 72.296 68.0672 74.1624 70.7627C75.9789 73.3874 80.7628 74.4269 81.2868 71.2782C81.3968 70.6174 81.4911 69.9376 81.5662 69.2403C82.386 61.6248 77.3862 50.3061 70.0901 44.9701Z" fill="#6B242E"/>
<path d="M49.3942 76.1912C49.4377 77.9808 48.8089 79.4472 47.9895 79.4674C47.1701 79.4875 46.4707 78.0524 46.4282 76.2627C46.3847 74.4731 47.0135 73.0067 47.8328 72.9865C48.6512 72.9664 49.3506 74.4016 49.3942 76.1912Z" fill="#6B242E"/>
<path d="M68.1107 75.7361C68.1543 77.5257 67.5255 78.9921 66.7061 79.0123C65.8867 79.0324 65.1873 77.5973 65.1448 75.8076C65.1012 74.018 65.73 72.5516 66.5494 72.5315C67.3678 72.5124 68.0672 73.9475 68.1107 75.7361Z" fill="#6B242E"/>
<path d="M55.3587 97.0592C51.9704 95.9491 53.9533 92.1555 57.5182 92.0861C61.1193 92.016 63.2262 95.8078 59.8402 97.0359C59.4721 97.1694 59.0806 97.2813 58.6643 97.366C57.7778 97.5463 56.5852 97.461 55.3587 97.0592Z" fill="white"/>
<path d="M50.0434 66.7207C50.5154 66.7231 50.9216 67.0551 51.029 67.5148C51.2018 68.2542 50.5495 68.9406 49.7966 68.842C49.1486 68.7571 48.3419 68.6709 47.4484 68.6186C45.3728 68.4969 44.8811 67.1782 46.9416 66.9C47.8044 66.7834 48.8288 66.7144 50.0434 66.7207Z" fill="#A64143"/>
<path d="M62.4256 66.4203C61.9543 66.4456 61.5647 66.7969 61.4797 67.2613C61.3431 68.008 62.0278 68.6617 62.7748 68.5267C63.4179 68.4106 64.2194 68.2854 65.1094 68.1898C67.1769 67.9677 67.6039 66.627 65.5321 66.449C64.6646 66.3745 63.6382 66.3552 62.4256 66.4203Z" fill="#A64143"/>
<path d="M37.5444 77.2485C38.7813 82.6278 37.2128 87.5795 34.0415 88.3081C30.8703 89.0377 27.2967 85.268 26.0589 79.8897C24.8221 74.5114 26.3906 69.5587 29.5618 68.8301C32.7331 68.1015 36.3076 71.8701 37.5444 77.2485Z" fill="#F2B292"/>
<path d="M31.3689 78.6693C31.0221 77.1633 31.021 75.712 31.2977 74.5143C31.4062 74.0448 31.1352 73.5215 30.6653 73.6287C29.0569 73.9984 28.2608 76.5113 28.8887 79.2396C29.5165 81.968 31.3297 83.8804 32.9382 83.5107C33.4076 83.4036 33.4227 82.8128 33.1202 82.438C32.3482 81.4814 31.7156 80.1754 31.3689 78.6693Z" fill="#6B242E"/>
<path d="M62.5098 80.9004C61.8369 80.1441 61.4516 81.8243 61.5268 82.8339C61.6139 84.0038 62.6115 85.5723 63.0538 84.4858C63.2683 83.9588 63.3524 83.315 63.2348 82.5285C63.1309 81.8359 62.8698 81.305 62.5098 80.9004Z" fill="#A64143"/>
<path d="M36.468 214.076C31.2683 210.205 27.4109 198.337 32.6417 202.166C38.3809 206.367 47.2357 220.409 41.0023 216.984C39.4502 216.131 37.9326 215.166 36.468 214.076Z" fill="#DE903D"/>
<path d="M42.5573 306.698C76.4979 307.454 138.954 251.353 124.78 228.958C114.624 212.913 37.2022 252.366 16.4821 263.311C13.3325 264.974 11.5001 268.283 12.0708 271.799C13.8732 282.901 20.3039 306.203 42.5573 306.698Z" fill="#273548"/>
<path d="M-5.60869 183.5C-9.84641 183.583 -13.1783 186.963 -13.5859 191.182C-14.8167 203.923 -16.4897 230.083 -10.6663 239.194C-3.41732 250.535 4.06415 242.511 8.79185 224.431C11.0439 215.817 12.4974 202.068 13.327 192.347C13.4309 191.13 13.2981 189.882 12.5258 188.936C10.7834 186.802 6.11783 183.272 -5.60869 183.5Z" fill="#F2B292"/>
<path d="M-7.38435 240.253C-7.0662 242.656 -5.25924 244.508 -3.03053 245.461C6.61424 249.585 34.9106 260.419 61.6828 258.313C80.0274 256.871 76.7396 241.5 65.1196 241.641C54.531 241.77 26.376 233.347 5.79812 224.266C2.25043 222.701 -1.97532 223.331 -4.00857 226.633C-6.09915 230.028 -8.09911 234.854 -7.38435 240.253Z" fill="#F2B292"/>
<path d="M100.172 233.527C102.98 230.491 101.682 222.668 103.63 219.02C105.045 216.371 106.025 213.536 105.419 211.381C105.172 210.503 102.493 204.395 102.589 203.488C102.87 200.821 102.521 198.006 100.35 196.519C100.154 196.386 99.9189 196.309 99.6823 196.303C97.052 196.231 95.1167 198.304 93.7787 200.629C93.324 201.418 87.5673 204.791 86.8524 205.356C85.0964 206.744 84.2253 209.615 83.815 212.591C83.2502 216.688 77.6052 222.256 78.0947 226.362C78.5606 230.272 80.5666 234.078 82.3806 236.826C84.1711 239.539 87.5166 240.625 90.5589 239.48C93.6411 238.321 97.4997 236.418 100.172 233.527Z" fill="#729E53"/>
<path d="M89.3316 250.493C87.6986 242.091 89.3123 232.192 93.8377 215.455C87.6746 231.659 83.1678 240.621 76.9135 246.463C73.1807 249.948 63.0307 252.512 60.7714 259.035C57.4783 268.544 65.9068 272.111 70.3637 276.262C71.0074 276.861 76.2643 278.566 77.1372 278.459C83.1823 277.717 92.0992 279.778 95.0163 270.147C97.0179 263.542 90.3054 255.507 89.3316 250.493Z" fill="#F5ECE1"/>
<path d="M8.4009 128.166C-0.309659 131.313 -7.08372 142.18 -11.017 159.474C-13.521 170.481 -14.6469 178.805 -15.1346 183.403C-15.4076 185.976 -14.4377 188.508 -12.1874 189.786C-8.49757 191.882 -1.54903 194.56 9.45725 194.13C13.355 193.978 16.483 191.047 17.2045 187.214C20.5436 169.472 27.998 121.086 8.4009 128.166Z" fill="#DF9A3A"/>
<path d="M53.4672 87.1845C56.5142 87.269 61.2047 87.4067 63.5278 86.9991C65.8509 86.5925 67.0725 90.3486 67.046 91.5394C67.0206 92.7301 50.0154 93.8669 48.8568 91.6273C48.2215 90.3997 50.2083 87.0938 53.4672 87.1845Z" fill="#6B242E"/>
<path d="M42.8179 126.497C41.6225 125.821 41.77 125.14 43.1433 125.121C44.2913 125.106 45.5452 125.044 46.7214 124.894C48.1421 124.713 49.613 125.411 50.0591 126.772C51.2536 130.416 53.3103 137.74 53.4933 145.422C53.4933 145.422 51.9242 131.656 42.8179 126.497Z" fill="#E3BF50"/>
<path d="M81.5488 167.967L74.602 171.616C74.1884 171.834 73.6942 171.836 73.2774 171.624L66.2886 168.055C65.8094 167.81 65.5073 167.319 65.5035 166.781L65.4258 153.362C65.4212 152.567 66.062 151.918 66.8572 151.914L80.7928 151.833C81.588 151.829 82.2365 152.47 82.2411 153.265L82.3188 166.684C82.3217 167.222 82.0248 167.717 81.5488 167.967Z" fill="#DF9A3A"/>
<path d="M66.655 154.489L80.7063 154.145" stroke="white" stroke-width="0.791238" stroke-miterlimit="10"/>
<path d="M182.649 194.69C182.647 191.387 187.593 188.949 188.434 192.143C189.221 195.134 189.139 202.726 186.463 201.175C184.299 199.92 182.651 197.908 182.649 194.69Z" fill="#EACDB9"/>
</g>
</g>
</svg>
