<svg width="66" height="49" viewBox="0 0 66 49" fill="none" xmlns="http://www.w3.org/2000/svg">
<path d="M55.3597 15.6036L32.6676 5.31326L9.84338 15.6036V48.257H55.3597V15.6036Z" fill="#3CAA6B"/>
<path d="M5.33071 19.0822C3.78254 19.7801 1.96167 19.0909 1.26372 17.5427C0.565783 15.9946 1.25499 14.1738 2.80313 13.4758L30.9382 0.791303C32.0539 0.288283 33.3321 0.289684 34.4468 0.795147L62.4024 13.4725C63.9492 14.174 64.6343 15.9966 63.9326 17.5433C63.2311 19.0895 61.409 19.7745 59.8626 19.0732L34.4396 7.54434C33.325 7.03888 32.0467 7.03748 30.931 7.54049L5.33071 19.0822Z" fill="#20683F"/>
<path d="M39.9909 26.7847H25.2124L32.6012 36.666L39.9909 26.7847Z" fill="#E6F5FF"/>
<path d="M24.5724 47.4023L31.9611 37.5209L24.5724 27.6405V47.4023Z" fill="#E6F5FF"/>
<path d="M32.6012 38.3766L25.2124 48.257H39.9899L32.6012 38.3766Z" fill="#E6F5FF"/>
<path d="M33.2405 37.5209L40.6303 47.4013V27.6405L33.2405 37.5209Z" fill="#E6F5FF"/>
</svg>
