<svg width="2673" height="593" viewBox="0 0 2673 593" fill="none" xmlns="http://www.w3.org/2000/svg">
<path d="M963.938 463.179V163.7H1011.77L1172.57 375.546L1146.84 381.576V163.7H1209.15V463.179H1160.91L1002.93 249.725L1026.25 243.695V463.179H963.938Z" fill="#20683F"/>
<path d="M1336.65 468.002C1318.97 468.002 1303.82 464.25 1291.23 456.747C1278.9 448.975 1269.52 438.256 1263.09 424.588C1256.66 410.921 1253.44 394.975 1253.44 376.752V243.695H1313.74V371.928C1313.74 380.236 1315.35 387.605 1318.56 394.037C1322.05 400.201 1326.87 405.025 1333.04 408.509C1339.2 411.993 1346.17 413.734 1353.94 413.734C1361.98 413.734 1368.95 411.993 1374.84 408.509C1381.01 405.025 1385.7 400.201 1388.91 394.037C1392.39 387.605 1394.14 380.236 1394.14 371.928V243.695H1454.43V463.179H1398.16V419.764L1401.37 429.412C1396.28 442.543 1387.97 452.325 1376.45 458.757C1365.19 464.92 1351.93 468.002 1336.65 468.002Z" fill="#20683F"/>
<path d="M1584.53 468.002C1560.41 468.002 1539.37 462.375 1521.42 451.119C1503.73 439.595 1491.67 424.186 1485.24 404.891L1529.46 383.988C1535.09 395.779 1542.72 405.025 1552.37 411.725C1562.02 418.424 1572.74 421.774 1584.53 421.774C1593.11 421.774 1599.67 420.032 1604.23 416.548C1608.78 413.064 1611.06 408.241 1611.06 402.077C1611.06 398.861 1610.26 396.181 1608.65 394.037C1607.04 391.625 1604.63 389.481 1601.41 387.605C1598.2 385.73 1594.18 384.122 1589.35 382.782L1551.97 372.33C1534.01 367.238 1520.21 359.065 1510.56 347.809C1500.92 336.285 1496.09 322.752 1496.09 307.209C1496.09 293.541 1499.58 281.616 1506.54 271.432C1513.51 261.248 1523.29 253.343 1535.89 247.715C1548.49 241.819 1562.96 238.871 1579.3 238.871C1600.74 238.871 1619.5 243.963 1635.58 254.147C1651.93 264.062 1663.45 278.132 1670.15 296.355L1625.53 317.258C1622.32 308.147 1616.42 300.911 1607.84 295.551C1599.54 289.923 1590.02 287.109 1579.3 287.109C1571.53 287.109 1565.37 288.717 1560.81 291.933C1556.52 295.149 1554.38 299.571 1554.38 305.199C1554.38 308.147 1555.18 310.826 1556.79 313.238C1558.4 315.65 1560.95 317.794 1564.43 319.67C1568.18 321.546 1572.74 323.288 1578.1 324.896L1613.07 335.347C1631.29 340.707 1645.23 348.881 1654.88 359.869C1664.52 370.588 1669.35 383.854 1669.35 399.665C1669.35 413.332 1665.73 425.258 1658.49 435.442C1651.53 445.625 1641.75 453.665 1629.15 459.561C1616.55 465.188 1601.68 468.002 1584.53 468.002Z" fill="#20683F"/>
<path d="M1773.32 468.002C1757.51 468.002 1743.84 465.456 1732.32 460.365C1720.8 455.273 1711.95 448.037 1705.79 438.658C1699.62 429.01 1696.54 417.62 1696.54 404.489C1696.54 392.161 1699.36 381.308 1704.98 371.928C1710.61 362.28 1719.19 354.241 1730.71 347.809C1742.5 341.377 1757.11 336.821 1774.53 334.142L1841.66 323.288V367.506L1785.38 377.556C1776.81 379.164 1770.24 381.978 1765.68 385.998C1761.13 389.749 1758.85 395.243 1758.85 402.479C1758.85 409.179 1761.4 414.404 1766.49 418.156C1771.58 421.908 1777.88 423.784 1785.38 423.784C1795.3 423.784 1804.01 421.64 1811.51 417.352C1819.01 413.064 1824.78 407.303 1828.8 400.067C1833.08 392.563 1835.23 384.39 1835.23 375.546V318.464C1835.23 310.156 1831.88 303.189 1825.18 297.561C1818.75 291.933 1809.9 289.119 1798.65 289.119C1787.93 289.119 1778.41 292.067 1770.11 297.963C1762.07 303.859 1756.17 311.63 1752.42 321.278L1704.18 298.365C1708.47 286.037 1715.3 275.452 1724.68 266.608C1734.06 257.764 1745.32 250.931 1758.45 246.107C1771.58 241.283 1785.92 238.871 1801.46 238.871C1819.95 238.871 1836.3 242.221 1850.5 248.921C1864.71 255.621 1875.69 265 1883.46 277.06C1891.5 288.851 1895.52 302.653 1895.52 318.464V463.179H1839.25V427.804L1852.91 425.392C1846.48 435.04 1839.38 443.079 1831.61 449.511C1823.84 455.675 1815.13 460.231 1805.48 463.179C1795.83 466.394 1785.11 468.002 1773.32 468.002Z" fill="#20683F"/>
<path d="M1998.03 463.179V208.231H2060.34V463.179H1998.03Z" fill="#20683F"/>
<path d="M2205.53 468.002C2189.72 468.002 2176.05 465.456 2164.53 460.365C2153.01 455.273 2144.16 448.037 2138 438.658C2131.84 429.01 2128.75 417.62 2128.75 404.489C2128.75 392.161 2131.57 381.308 2137.2 371.928C2142.82 362.28 2151.4 354.241 2162.92 347.809C2174.71 341.377 2189.32 336.821 2206.74 334.142L2273.87 323.288V367.506L2217.59 377.556C2209.02 379.164 2202.45 381.978 2197.9 385.998C2193.34 389.749 2191.06 395.243 2191.06 402.479C2191.06 409.179 2193.61 414.404 2198.7 418.156C2203.79 421.908 2210.09 423.784 2217.59 423.784C2227.51 423.784 2236.22 421.64 2243.72 417.352C2251.23 413.064 2256.99 407.303 2261.01 400.067C2265.29 392.563 2267.44 384.39 2267.44 375.546V318.464C2267.44 310.156 2264.09 303.189 2257.39 297.561C2250.96 291.933 2242.11 289.119 2230.86 289.119C2220.14 289.119 2210.62 292.067 2202.32 297.963C2194.28 303.859 2188.38 311.63 2184.63 321.278L2136.39 298.365C2140.68 286.037 2147.51 275.452 2156.89 266.608C2166.27 257.764 2177.53 250.931 2190.66 246.107C2203.79 241.283 2218.13 238.871 2233.67 238.871C2252.16 238.871 2268.51 242.221 2282.71 248.921C2296.92 255.621 2307.9 265 2315.68 277.06C2323.72 288.851 2327.74 302.653 2327.74 318.464V463.179H2271.46V427.804L2285.13 425.392C2278.69 435.04 2271.59 443.079 2263.82 449.511C2256.05 455.675 2247.34 460.231 2237.69 463.179C2228.04 466.394 2217.32 468.002 2205.53 468.002Z" fill="#20683F"/>
<path d="M2371.96 463.179V243.695H2428.24V287.109L2425.02 277.462C2430.11 264.33 2438.28 254.683 2449.54 248.519C2461.06 242.087 2474.46 238.871 2489.74 238.871C2506.35 238.871 2520.83 242.355 2533.15 249.323C2545.75 256.291 2555.53 266.072 2562.5 278.668C2569.47 290.995 2572.95 305.467 2572.95 322.082V463.179H2512.65V334.945C2512.65 326.37 2510.91 319 2507.43 312.836C2504.21 306.673 2499.52 301.849 2493.36 298.365C2487.46 294.881 2480.49 293.139 2472.45 293.139C2464.68 293.139 2457.71 294.881 2451.55 298.365C2445.39 301.849 2440.56 306.673 2437.08 312.836C2433.86 319 2432.26 326.37 2432.26 334.945V463.179H2371.96Z" fill="#20683F"/>
<path d="M2612.6 463.179V243.695H2672.9V463.179H2612.6ZM2612.6 223.998V163.7H2672.9V223.998H2612.6Z" fill="#20683F"/>
<path d="M679.43 191.503L400.931 65.2095L120.809 191.503V592.257H679.43V191.503Z" fill="#3CAA6B"/>
<path d="M65.4236 234.195C46.423 242.761 24.0756 234.302 15.5096 215.301C6.94384 196.301 15.4025 173.954 34.4027 165.388L379.704 9.71166C393.397 3.53811 409.085 3.55528 422.764 9.75882L765.863 165.348C784.846 173.957 793.255 196.326 784.643 215.308C776.033 234.285 753.671 242.692 734.692 234.085L422.676 92.5915C408.997 86.388 393.309 86.3708 379.616 92.5443L65.4236 234.195Z" fill="#20683F"/>
<path d="M490.808 328.727H309.431L400.113 450.001L490.808 328.727Z" fill="#E6F5FF"/>
<path d="M301.578 581.767L392.26 460.493L301.578 339.232V581.767Z" fill="#E6F5FF"/>
<path d="M400.113 470.995L309.431 592.257H490.795L400.113 470.995Z" fill="#E6F5FF"/>
<path d="M407.962 460.493L498.657 581.755V339.232L407.962 460.493Z" fill="#E6F5FF"/>
<path d="M473.796 182.9L411.429 224.599L473.796 266.299V182.9Z" fill="#E6F5FF"/>
<path d="M462.471 175.339H337.737L400.104 217.038L462.471 175.339Z" fill="#E6F5FF"/>
<path d="M462.471 273.859L400.104 232.16L337.737 273.859H462.471Z" fill="#E6F5FF"/>
<path d="M388.799 224.599L326.432 182.9V266.299L388.799 224.599Z" fill="#E6F5FF"/>
<path d="M1914.58 191.808H2147.77" stroke="#20683F" stroke-width="49.0919"/>
</svg>
