<svg width="299" height="299" viewBox="0 0 299 299" fill="none" xmlns="http://www.w3.org/2000/svg">
<mask id="mask0_391_1176" style="mask-type:alpha" maskUnits="userSpaceOnUse" x="0" y="0" width="299" height="299">
<circle cx="149.364" cy="149.364" r="149.364" fill="#3CAA6B"/>
</mask>
<g mask="url(#mask0_391_1176)">
<circle cx="149.364" cy="149.364" r="149.364" fill="#3CAA6B"/>
<path d="M114.991 44.5754C114.991 44.5754 140.164 10.5123 184.766 33.2411C233.666 58.16 207.241 111.874 207.241 111.874L102.155 91.9664L114.991 44.5754Z" fill="#1E0B02"/>
<path d="M93.974 112.137C93.974 112.137 66.4845 58.1599 114.991 44.5752L123.711 73.5258L93.974 112.137Z" fill="#1E0B02"/>
<path d="M117.28 137.05C117.584 147.83 109.093 156.819 98.3131 157.123C87.5335 157.427 78.5446 148.936 78.2404 138.156C77.9361 127.377 86.4273 118.388 97.2101 118.084C107.987 117.776 116.975 126.27 117.28 137.05Z" fill="#E8B499"/>
<path d="M86.6719 134.856C86.6719 134.856 94.4373 131.075 101.838 144.564" stroke="#C47268" stroke-width="2.18287" stroke-miterlimit="10" stroke-linecap="round" stroke-linejoin="round"/>
<path d="M188.575 137.6C188.575 148.386 197.317 157.128 208.103 157.128C218.889 157.128 227.63 148.386 227.63 137.6C227.63 126.814 218.889 118.073 208.103 118.073C197.32 118.073 188.575 126.814 188.575 137.6Z" fill="#E8B499"/>
<path d="M219.108 134.543C219.108 134.543 211.238 130.98 204.224 144.676" stroke="#C47268" stroke-width="2.18287" stroke-miterlimit="10" stroke-linecap="round" stroke-linejoin="round"/>
<path d="M177.984 182.599C177.984 182.599 166.973 190.367 156.941 192.285C146.909 194.203 137.154 188.38 137.03 188.307C136.906 188.238 125.315 181.569 125.315 181.569L120.517 245.844L121.816 246.915C138.827 260.947 163.35 261.115 180.551 247.315L183.068 245.296L177.984 182.599Z" fill="#E8B499"/>
<path d="M120.517 174.811C120.517 174.811 131.458 210.627 156.637 210.231C177.334 209.905 180.671 174.811 180.671 174.811H120.517Z" fill="#1E0B02"/>
<path d="M205.659 103.605C205.77 125.678 202.715 144.743 199.637 158.277C196.623 171.529 184.965 180.822 172.75 188.327L170.525 189.694C157.599 197.636 146.912 197.906 133.707 190.381C120.392 182.793 108.012 172.746 105.08 158.556C99.7456 132.749 99.0324 104.141 99.0324 104.141C99.0324 104.141 91.5365 44.4332 149.045 45.2256C206.553 46.0243 205.659 103.605 205.659 103.605Z" fill="#E8B499"/>
<path d="M132.193 121.12C132.193 123.69 130.11 125.773 127.54 125.773C124.969 125.773 122.887 123.69 122.887 121.12C122.887 118.549 124.973 116.467 127.54 116.467C130.107 116.467 132.193 118.549 132.193 121.12Z" fill="#1E0B02"/>
<path d="M177.853 121.12C177.853 123.69 175.771 125.773 173.2 125.773C170.63 125.773 168.547 123.69 168.547 121.12C168.547 118.549 170.633 116.467 173.2 116.467C175.771 116.467 177.853 118.549 177.853 121.12Z" fill="#1E0B02"/>
<path d="M146.148 133.294V140.752H152.186" stroke="#C47268" stroke-width="2.18287" stroke-miterlimit="10" stroke-linecap="round" stroke-linejoin="round"/>
<path d="M110.199 101.45L140.605 98.7081C140.605 98.7081 137.882 90.8286 125.587 92.1059C113.011 93.4149 110.199 101.45 110.199 101.45Z" fill="black"/>
<path d="M188.575 101.45L158.17 98.7081C158.17 98.7081 160.892 90.8286 173.187 92.1059C185.764 93.4149 188.575 101.45 188.575 101.45Z" fill="black"/>
<path d="M135.739 151.38H165.736C165.736 151.38 164.325 160.569 150.294 160.569C136.259 160.572 135.739 151.38 135.739 151.38Z" fill="white"/>
<path d="M100.989 132.401C100.989 132.401 103.242 59.264 102.307 57.1848C102.307 57.1848 76.3739 81.1434 100.989 132.401Z" fill="#1E0B02"/>
<path d="M203.492 131.88L199.599 52.4705C199.599 52.4705 224.534 77.2468 203.492 131.88Z" fill="#1E0B02"/>
<path d="M125.051 50.7041C125.051 50.7041 107.21 55.5377 107.818 73.0557C108.427 90.5738 96.5789 107.791 96.5789 107.791L91.1685 90.2854C91.1685 90.2854 86.991 57.6613 125.051 50.7041Z" fill="#1E0B02"/>
<path d="M120.551 52.1546C120.551 52.1546 133.911 44.5762 147.172 61.2512C158.497 75.492 188.36 90.1575 206.04 76.1988C206.04 76.1988 194.779 35.8917 150.839 36.7126C106.9 37.5335 120.551 52.1546 120.551 52.1546Z" fill="#1E0B02"/>
<path d="M302.375 381.356H0C5.51501 358.472 11.1885 338.123 16.7986 322.276C25.1028 298.884 37.052 285.192 46.941 277.395C56.7983 269.566 64.5954 267.601 64.5954 267.601L85.5778 258.821L218.318 258.948L237.779 267.601C237.779 267.601 268.968 275.461 285.576 322.276C291.186 338.123 296.86 358.472 302.375 381.356Z" fill="#EF758D"/>
<path d="M153.549 230.862L218.331 258.944C218.331 258.944 151.77 319.096 85.584 258.811L153.549 230.862Z" fill="#E8B499"/>
<path d="M85.584 258.81C85.584 258.81 108.646 286.096 151.789 286.096C194.933 286.096 218.331 258.946 218.331 258.946" stroke="white" stroke-width="6.14385" stroke-miterlimit="10"/>
</g>
</svg>
