<svg width="299" height="299" viewBox="0 0 299 299" fill="none" xmlns="http://www.w3.org/2000/svg">
<mask id="mask0_391_1149" style="mask-type:alpha" maskUnits="userSpaceOnUse" x="0" y="0" width="299" height="299">
<circle cx="149.364" cy="149.364" r="149.364" fill="#3CAA6B"/>
</mask>
<g mask="url(#mask0_391_1149)">
<circle cx="149.364" cy="149.364" r="149.364" fill="#3CAA6B"/>
<path d="M119.189 126.847C119.506 138.077 110.66 147.441 99.4302 147.758C88.2003 148.075 78.836 139.229 78.519 127.999C78.202 116.769 87.0479 107.405 98.2778 107.088C109.511 106.771 118.872 115.617 119.189 126.847Z" fill="#E8B499"/>
<path d="M87.3069 124.562C87.3069 124.562 95.3965 120.622 103.107 134.675" stroke="#C47268" stroke-width="2.27404" stroke-miterlimit="10" stroke-linecap="round" stroke-linejoin="round"/>
<path d="M193.467 127.422C193.467 138.658 202.573 147.765 213.81 147.765C225.046 147.765 234.153 138.658 234.153 127.422C234.153 116.185 225.046 107.078 213.81 107.078C202.573 107.078 193.467 116.188 193.467 127.422Z" fill="#E8B499"/>
<path d="M225.274 124.236C225.274 124.236 217.075 120.525 209.768 134.793" stroke="#C47268" stroke-width="2.27404" stroke-miterlimit="10" stroke-linecap="round" stroke-linejoin="round"/>
<path d="M182.431 174.299C182.431 174.299 170.96 182.392 160.51 184.39C150.059 186.387 139.896 180.322 139.767 180.246C139.638 180.173 127.563 173.226 127.563 173.226L122.564 240.186L123.918 241.302C141.639 255.919 167.186 256.094 185.106 241.718L187.727 239.615L182.431 174.299Z" fill="#E8B499"/>
<path d="M122.564 166.185C122.564 166.185 133.962 203.496 160.193 203.084C181.754 202.744 185.231 166.185 185.231 166.185H122.564Z" fill="#1E0B02"/>
<path d="M212.875 79.8821C212.991 102.877 208.193 134.863 204.987 148.962C201.847 162.767 189.702 172.449 176.976 180.268L174.659 181.691C161.193 189.965 150.059 190.246 136.303 182.407C122.432 174.502 109.534 164.035 106.48 149.252C100.923 122.368 96.6999 107.288 95.2041 93.0304C92.7442 69.5537 93.7083 19.0539 153.896 19.0671C213.816 19.077 212.875 79.8821 212.875 79.8821Z" fill="#E8B499"/>
<path d="M134.725 110.25C134.725 112.928 132.556 115.097 129.878 115.097C127.2 115.097 125.031 112.928 125.031 110.25C125.031 107.572 127.203 105.403 129.878 105.403C132.556 105.403 134.725 107.572 134.725 110.25Z" fill="#1E0B02"/>
<path d="M182.297 110.25C182.297 112.928 180.127 115.097 177.449 115.097C174.772 115.097 172.602 112.928 172.602 110.25C172.602 107.572 174.775 105.403 177.449 105.403C180.124 105.403 182.297 107.572 182.297 110.25Z" fill="#1E0B02"/>
<path d="M149.263 122.933V130.703H155.557" stroke="#C47268" stroke-width="2.27404" stroke-miterlimit="10" stroke-linecap="round" stroke-linejoin="round"/>
<path d="M111.815 89.7582L143.491 86.9021C143.491 86.9021 140.655 78.6935 127.846 80.0275C114.741 81.3879 111.815 89.7582 111.815 89.7582Z" fill="black"/>
<path d="M193.466 89.7582L161.787 86.9021C161.787 86.9021 164.623 78.6935 177.432 80.0275C190.537 81.3879 193.466 89.7582 193.466 89.7582Z" fill="black"/>
<path d="M312.016 381.356H-2.98877C2.75659 357.516 8.66702 336.317 14.5114 319.808C23.1625 295.44 35.6108 281.175 45.9129 273.053C56.1819 264.897 64.3046 262.849 64.3046 262.849L86.1634 253.703L224.448 253.835L244.722 262.849C244.722 262.849 277.213 271.038 294.515 319.808C300.363 336.317 306.274 357.516 312.016 381.356Z" fill="white"/>
<path d="M156.977 224.575L224.466 253.83C224.466 253.83 155.125 316.494 86.1741 253.692L156.977 224.575Z" fill="#E8B499"/>
<path d="M86.1741 253.694C86.1741 253.694 110.199 282.12 155.145 282.12C200.091 282.12 224.466 253.836 224.466 253.836" stroke="white" stroke-width="6.40047" stroke-miterlimit="10"/>
<path d="M206.562 122.042C206.562 122.042 205.502 121.481 201.788 127.421C198.073 133.361 195.065 149.283 195.065 149.283C195.065 149.283 191.542 141.854 182.247 137.079C173.761 132.717 155.937 135.131 152.903 135.583C148.194 134.764 137.056 133.391 129.878 137.079C120.586 141.854 117.06 149.283 117.06 149.283C117.06 149.283 114.052 133.364 110.337 127.421C106.623 121.477 105.559 122.042 105.559 122.042C105.559 122.042 103.615 152.998 111.929 171.393C119.229 187.549 147.236 194.235 153.896 194.566C153.896 194.566 191.879 189.791 200.193 171.393C208.507 152.998 206.562 122.042 206.562 122.042Z" fill="#A74B22"/>
<path d="M138.423 141.777H169.672C169.672 141.777 168.203 151.35 153.585 151.35C138.964 151.35 138.423 141.777 138.423 141.777Z" fill="white"/>
</g>
</svg>
