<svg width="299" height="299" viewBox="0 0 299 299" fill="none" xmlns="http://www.w3.org/2000/svg">
<mask id="mask0_391_1112" style="mask-type:alpha" maskUnits="userSpaceOnUse" x="0" y="0" width="299" height="299">
<circle cx="149.364" cy="149.364" r="149.364" fill="#3CAA6B"/>
</mask>
<g mask="url(#mask0_391_1112)">
<circle cx="149.364" cy="149.364" r="149.364" fill="#3CAA6B"/>
<path d="M204.235 152.71C214.561 152.71 222.932 144.339 222.932 134.013C222.932 123.687 214.561 115.316 204.235 115.316C193.909 115.316 185.538 123.687 185.538 134.013C185.538 144.339 193.909 152.71 204.235 152.71Z" fill="#E8B499"/>
<path d="M214.772 131.086C214.772 131.086 207.239 127.675 200.521 140.788" stroke="#C47268" stroke-width="2.09002" stroke-miterlimit="10" stroke-linecap="round" stroke-linejoin="round"/>
<path d="M117.275 133.485C117.566 143.806 109.436 152.41 99.115 152.704C88.7939 152.995 80.1874 144.865 79.896 134.544C79.6047 124.223 87.7347 115.616 98.0559 115.325C108.377 115.031 116.984 123.161 117.275 133.485Z" fill="#E8B499"/>
<path d="M87.9688 131.384C87.9688 131.384 95.4038 127.764 102.49 140.68" stroke="#C47268" stroke-width="2.09002" stroke-miterlimit="10" stroke-linecap="round" stroke-linejoin="round"/>
<path d="M233.748 336.862H65.2598L65.5632 248.946C68.9925 246.822 73.0591 245.153 77.1256 243.848C86.8671 240.752 96.3962 239.872 96.3962 239.872L149.443 245.213L202.491 239.872C202.491 239.872 209.683 240.54 217.937 242.755C217.968 242.755 217.998 242.785 218.028 242.785C223.187 244.151 228.771 246.154 233.293 248.946L233.748 336.862Z" fill="#EF758D"/>
<path d="M77.3474 243.803L139.86 227.376H161.416L217.947 242.76C189.038 269.86 117.282 292.074 80.5764 245.063L77.3474 243.803Z" fill="#E8B499"/>
<path d="M169.468 171.331C169.468 171.331 161.378 178.757 154 180.58C146.623 182.404 139.44 176.817 139.349 176.751C139.258 176.684 130.721 170.287 130.721 170.287L127.261 231.822L128.217 232.848C140.748 246.304 158.789 246.489 171.426 233.294L173.274 231.364L169.468 171.331Z" fill="#E8B499"/>
<path d="M77.3379 243.819L70.0545 336.864H10.9985C17.1591 322.419 24.3817 305.03 31.0278 287.974C45.989 249.433 74.3942 244.274 77.1255 243.849C77.2772 243.819 77.3379 243.819 77.3379 243.819Z" fill="#EF758D"/>
<path d="M288.282 336.864H227.618L217.937 242.757C217.967 242.757 217.997 242.787 218.028 242.787C220 243.03 251.562 247.977 267.858 287.975C275.142 305.88 282.425 323.147 288.282 336.864Z" fill="#EF758D"/>
<path d="M150.499 288.259C203.941 285.999 238.54 252.789 238.54 252.789C234.99 238.484 217.898 227.377 217.898 227.377C217.898 227.377 220.159 218.105 214.787 210.737C209.416 203.369 217.473 192.529 225.084 162.157C232.695 131.785 226.429 83.2781 207.179 49.896C187.951 16.5473 149.301 19.1086 149.222 19.1147C149.143 19.1086 110.492 16.5473 91.2644 49.896C72.0151 83.2781 65.7483 131.782 73.3594 162.157C80.9706 192.529 89.0278 203.369 83.6563 210.737C78.2848 218.108 80.5427 227.377 80.5427 227.377C80.5427 227.377 63.448 238.484 59.9004 252.789C59.9004 252.789 94.4994 285.996 147.941 288.259V288.369C148.372 288.36 148.794 288.329 149.225 288.314C149.656 288.329 150.075 288.36 150.509 288.369L150.499 288.259Z" fill="#28466D"/>
<path d="M207.882 112.496C215.633 81.0054 196.388 49.1935 164.898 41.4425C133.407 33.6914 101.595 52.9362 93.8437 84.4271C86.0926 115.918 105.337 147.73 136.828 155.481C168.319 163.232 200.131 143.987 207.882 112.496Z" fill="#28466D"/>
<path d="M124.895 162.158C124.895 162.158 135.273 198.116 153.794 197.764C169.02 197.473 173.247 163.945 173.247 163.945L124.895 162.158Z" fill="#1E0B02"/>
<path d="M201.883 99.0526C201.987 119.279 199.055 136.75 196.105 149.156C193.216 161.301 184.956 169.817 173.257 176.699L171.126 177.953C158.748 185.233 142.709 185.485 130.069 178.59C117.32 171.637 108.374 162.433 105.57 149.432C100.469 125.786 99.7918 99.5686 99.7918 99.5686C99.7918 99.5686 95.528 44.8553 150.593 45.5684C205.652 46.2816 201.883 99.0526 201.883 99.0526Z" fill="#E8B499"/>
<path d="M146.409 129.017V137.029H151.811" stroke="#C47268" stroke-width="2.09002" stroke-miterlimit="10" stroke-linecap="round" stroke-linejoin="round"/>
<path d="M109.009 98.5976L138.121 95.9726C138.121 95.9726 135.514 88.4282 123.742 89.6543C111.701 90.9076 109.009 98.5976 109.009 98.5976Z" fill="black"/>
<path d="M189.038 98.5976L159.926 95.9726C159.926 95.9726 162.533 88.4282 174.304 89.6543C186.349 90.9076 189.038 98.5976 189.038 98.5976Z" fill="black"/>
<path d="M133.213 144.418H165.002C165.002 144.418 163.782 152.709 148.539 152.709C136.027 152.709 133.213 144.418 133.213 144.418Z" fill="white"/>
<path d="M134.694 118.231C134.694 118.231 127.162 112.071 120.552 118.231" stroke="#1E0B02" stroke-width="2.90273" stroke-miterlimit="10" stroke-linecap="round" stroke-linejoin="round"/>
<path d="M177.245 118.231C177.245 118.231 171.345 111.912 163.461 118.231" stroke="#1E0B02" stroke-width="2.90273" stroke-miterlimit="10" stroke-linecap="round" stroke-linejoin="round"/>
<path opacity="0.23" d="M120.583 98.1022L141.92 127.072C141.92 127.072 135.483 139.375 125.232 138.006L103.694 109.743C103.694 109.743 109.521 97.3192 120.583 98.1022Z" fill="white"/>
<path opacity="0.23" d="M173.068 98.1022L194.406 127.072C194.406 127.072 187.969 139.375 177.718 138.006L156.18 109.743C156.18 109.743 162.004 97.3192 173.068 98.1022Z" fill="white"/>
<path d="M143.617 118.23C143.617 129.753 134.276 139.094 122.753 139.094C111.23 139.094 101.889 129.753 101.889 118.23C101.889 106.707 111.23 97.3662 122.753 97.3662C134.276 97.3662 143.617 106.707 143.617 118.23Z" stroke="white" stroke-width="1.49521" stroke-miterlimit="10"/>
<path d="M196.159 118.23C196.159 129.753 186.818 139.094 175.295 139.094C163.773 139.094 154.432 129.753 154.432 118.23C154.432 106.707 163.773 97.3662 175.295 97.3662C186.818 97.3662 196.159 106.707 196.159 118.23Z" stroke="white" stroke-width="1.49521" stroke-miterlimit="10"/>
<path d="M143.617 118.231C143.617 118.231 149.577 116.037 154.429 118.231" stroke="white" stroke-width="1.49521" stroke-miterlimit="10"/>
<path d="M201.883 86.6165C196.284 35.0229 161.782 36.5494 148.184 39.226C134.588 36.5494 100.083 35.0229 94.4839 86.6165C94.4839 86.6165 107.239 84.1857 121.086 76.9508C137.993 68.1167 158.371 68.1167 175.281 76.9508C189.128 84.1887 201.883 86.6165 201.883 86.6165Z" fill="#28466D"/>
</g>
</svg>
