<svg width="1316" height="632" viewBox="0 0 1316 632" fill="none" xmlns="http://www.w3.org/2000/svg">
<path d="M0 0H1316V632H0V0Z" fill="url(#paint0_linear_496_2)"/>
<mask id="mask0_496_2" style="mask-type:luminance" maskUnits="userSpaceOnUse" x="0" y="0" width="1316" height="633">
<path d="M0 632L1316 632V0.473145L0 0.473145V632Z" fill="white"/>
</mask>
<g mask="url(#mask0_496_2)">
<path d="M1346.95 301.335C1344.74 263.187 1342.35 232.868 1339.81 230.446C1342.44 228.646 1344.83 226.53 1346.95 224.159V172.012C1339.78 163.969 1329.34 158.9 1317.71 158.9C1308.74 158.9 1300.49 161.918 1293.88 166.982C1282.82 156.196 1267.7 149.54 1251.03 149.54C1229.47 149.54 1210.53 160.654 1199.57 177.457C1193.41 171.765 1185.21 168.257 1176.17 168.257C1168.73 168.257 1161.87 170.63 1156.24 174.625C1156.64 172.367 1156.86 170.047 1156.86 167.671C1156.86 146.029 1139.32 128.484 1117.68 128.484C1105.54 128.484 1094.7 134.001 1087.51 142.662C1075.18 134.22 1060.41 129.102 1044.47 128.555C1044.51 127.947 1044.57 127.346 1044.57 126.728C1044.57 109.608 1030.69 95.7282 1013.57 95.7282C1004.91 95.7282 997.091 99.2832 991.468 105.005C982.705 96.3775 970.685 91.0503 957.417 91.0503C935.341 91.0503 916.719 105.791 910.825 125.961C907.094 126.545 903.45 127.388 899.907 128.46C894.891 118.098 884.307 110.934 872.022 110.934C854.902 110.934 841.022 124.814 841.022 141.934C841.022 151.771 845.618 160.519 852.765 166.199C848.485 173.735 845.374 182.018 843.681 190.808C841.849 190.598 839.989 190.478 838.099 190.478C811.288 190.478 789.553 212.214 789.553 239.025C789.553 243.719 790.232 248.251 791.476 252.545C791.028 252.527 790.59 252.478 790.139 252.478C784.663 252.478 779.506 253.787 774.905 256.057C771.915 240.043 757.89 227.913 741.008 227.913C721.949 227.913 706.499 243.362 706.499 262.422C706.499 266.787 707.343 270.948 708.822 274.792C708.243 274.762 707.671 274.704 707.083 274.704C688.024 274.704 672.574 290.154 672.574 309.213C672.574 310.612 672.681 311.984 672.845 313.34C666.561 304.821 656.484 299.27 645.086 299.27C636.505 299.27 628.683 302.425 622.654 307.61C622.802 306.311 622.896 304.999 622.896 303.662C622.896 284.602 607.446 269.152 588.387 269.152C584.004 269.152 579.828 270.002 575.971 271.491C572.729 255.799 558.833 244.001 542.18 244.001C535.144 244.001 528.608 246.119 523.151 249.734C519.641 234.398 505.941 222.945 489.54 222.945C478.142 222.945 468.064 228.495 461.781 237.016C461.942 235.659 462.051 234.287 462.051 232.889C462.051 213.83 446.601 198.38 427.542 198.38C426.954 198.38 426.384 198.439 425.803 198.467C427.283 194.623 428.127 190.463 428.127 186.097C428.127 167.038 412.677 151.588 393.618 151.588C376.736 151.588 362.709 163.718 359.721 179.733C355.122 177.462 349.963 176.153 344.489 176.153C344.038 176.153 343.599 176.204 343.152 176.22C344.394 171.926 345.075 167.394 345.075 162.7C345.075 144.617 335.18 128.855 320.516 120.501C325.98 113.507 329.246 104.71 329.246 95.1457C329.246 73.5001 312.564 55.7622 291.357 54.0584C286.774 42.6636 275.639 34.6097 262.605 34.6097C250.321 34.6097 239.737 41.774 234.72 52.1353C231.176 51.0632 227.533 50.2192 223.803 49.6367C217.909 29.465 199.288 14.7258 177.211 14.7258C163.942 14.7258 151.923 20.0547 143.16 28.6807C137.536 22.9605 129.717 19.4038 121.062 19.4038C103.941 19.4038 90.0619 33.2832 90.0619 50.4035C90.0619 51.0193 90.1181 51.6229 90.1549 52.2301C74.219 52.7775 59.4483 57.8959 47.1182 66.3376C39.9293 57.6765 29.0855 52.1599 16.9502 52.1599C2.83919 52.1599 -9.52594 59.6207 -16.4253 70.812V460.997H1346.95V301.335H1346.95ZM393.295 228.836C387.99 226.437 382.228 224.882 376.169 224.342C377.171 222.026 377.913 219.576 378.387 217.028C382.986 219.299 388.145 220.608 393.619 220.608C394.207 220.608 394.777 220.548 395.358 220.52C394.346 223.156 393.635 225.937 393.295 228.836ZM741.335 305.16C740.994 302.261 740.283 299.48 739.269 296.846C739.848 296.874 740.42 296.934 741.008 296.934C746.484 296.934 751.641 295.625 756.24 293.355C756.716 295.901 757.458 298.352 758.458 300.668C752.399 301.205 746.637 302.761 741.335 305.16Z" fill="url(#paint1_linear_496_2)"/>
<path d="M-16.4238 451.296C-5.79932 456.388 6.10083 459.244 18.6695 459.244C63.2328 459.244 99.4017 423.386 99.9439 378.951C102.413 379.439 104.962 379.698 107.573 379.698C120.565 379.698 132.072 373.373 139.203 363.638C148.31 371.455 160.14 376.189 173.082 376.189C187.225 376.189 200.042 370.541 209.425 361.387C215.231 366.129 221.702 370.081 228.68 373.087C228.673 373.536 228.647 373.982 228.647 374.432C228.647 419.333 265.046 455.731 309.946 455.731C332.92 455.731 353.653 446.186 368.438 430.864C373.209 471.216 407.512 502.521 449.149 502.521C470.031 502.521 489.068 494.641 503.465 481.702C512.913 490.277 525.458 495.503 539.221 495.503C554.383 495.503 568.052 489.153 577.747 478.981C583.656 501.937 604.495 518.899 629.295 518.899C658.691 518.899 682.52 495.069 682.52 465.675C682.52 465.18 682.495 464.691 682.483 464.198C688.782 472.541 698.75 477.958 710.01 477.958C714.393 477.958 718.567 477.109 722.426 475.619C724.135 483.892 728.823 491.058 735.298 496.008C730.943 500.584 727.811 506.333 726.484 512.755C722.628 511.265 718.452 510.416 714.068 510.416C695.009 510.416 679.559 525.865 679.559 544.925C679.559 563.984 695.009 579.434 714.068 579.434C730.722 579.434 744.617 567.635 747.86 551.943C751.717 553.433 755.893 554.282 760.276 554.282C771.536 554.282 781.504 548.866 787.803 540.522C787.789 541.014 787.766 541.503 787.766 542C787.766 571.396 811.596 595.224 840.991 595.224C865.791 595.224 886.629 578.262 892.539 555.305C902.234 565.477 915.903 571.827 931.065 571.827C944.828 571.827 957.372 566.602 966.821 558.027C981.22 570.966 1000.26 578.846 1021.14 578.846C1062.77 578.846 1097.08 547.541 1101.85 507.189C1116.63 522.511 1137.37 532.056 1160.34 532.056C1205.24 532.056 1241.64 495.657 1241.64 450.757C1241.64 450.306 1241.61 449.86 1241.61 449.411C1248.59 446.405 1255.06 442.452 1260.86 437.711C1270.25 446.865 1283.06 452.513 1297.21 452.513C1310.15 452.513 1321.98 447.779 1331.08 439.962C1335.14 445.496 1340.61 449.924 1346.96 452.717V333.338C1345.98 333.254 1345 333.194 1344 333.194C1336.57 333.194 1329.7 335.567 1324.07 339.562C1324.47 337.304 1324.7 334.984 1324.7 332.608C1324.7 310.966 1307.15 293.421 1285.51 293.421C1273.37 293.421 1262.53 298.938 1255.34 307.599C1243.01 299.157 1228.24 294.039 1212.31 293.493C1212.34 292.886 1212.4 292.284 1212.4 291.667C1212.4 274.546 1198.52 260.667 1181.4 260.667C1172.74 260.667 1164.92 264.222 1159.3 269.944C1150.54 261.316 1138.52 255.989 1125.25 255.989C1103.17 255.989 1084.55 270.73 1078.66 290.9C1074.93 291.484 1071.28 292.326 1067.74 293.398C1062.72 283.037 1052.14 275.875 1039.86 275.875C1022.74 275.875 1008.86 289.754 1008.86 306.874C1008.86 316.711 1013.45 325.46 1020.6 331.14C1016.32 338.676 1013.21 346.958 1011.51 355.749C1009.68 355.538 1007.82 355.419 1005.93 355.419C979.121 355.419 957.386 377.154 957.386 403.965C957.386 408.659 958.065 413.191 959.309 417.485C958.862 417.467 958.423 417.418 957.972 417.418C952.496 417.418 947.339 418.727 942.738 420.998C939.748 404.983 925.722 392.853 908.842 392.853C889.782 392.853 874.333 408.303 874.333 427.362C874.333 431.728 875.177 435.888 876.656 439.732C876.077 439.703 875.505 439.645 874.917 439.645C855.858 439.645 840.408 455.094 840.408 474.154C840.408 475.552 840.515 476.924 840.678 478.281C834.395 469.762 824.318 464.21 812.919 464.21C804.339 464.21 796.517 467.365 790.488 472.55C790.635 471.251 790.73 469.939 790.73 468.602C790.73 449.543 775.28 434.093 756.221 434.093C751.838 434.093 747.662 434.942 743.805 436.432C740.562 420.74 726.667 408.942 710.013 408.942C702.977 408.942 696.441 411.059 690.984 414.674C687.475 399.338 673.774 387.886 657.373 387.886C645.975 387.886 635.898 393.436 629.615 401.956C629.776 400.6 629.885 399.228 629.885 397.829C629.885 378.77 614.435 363.32 595.376 363.32C594.788 363.32 594.218 363.38 593.637 363.408C595.116 359.563 595.96 355.403 595.96 351.038C595.96 331.978 580.51 316.528 561.451 316.528C544.569 316.528 530.543 328.658 527.553 344.673C522.954 342.403 517.795 341.094 512.32 341.094C511.869 341.094 511.431 341.145 510.983 341.16C512.226 336.867 512.906 332.335 512.906 327.641C512.906 300.829 491.171 279.094 464.36 279.094C462.472 279.094 460.61 279.214 458.778 279.424C457.085 270.632 453.972 262.351 449.695 254.813C456.84 249.135 461.437 240.385 461.437 230.548C461.437 213.428 447.557 199.548 430.437 199.548C418.153 199.548 407.569 206.713 402.552 217.074C399.008 216.002 395.365 215.158 391.634 214.575C385.741 194.404 367.12 179.664 345.043 179.664C331.774 179.664 319.755 184.993 310.992 193.619C305.368 187.899 297.549 184.342 288.893 184.342C271.773 184.342 257.894 198.222 257.894 215.342C257.894 215.958 257.95 216.56 257.987 217.169C242.051 217.716 227.28 222.835 214.952 231.274C207.765 222.613 196.919 217.097 184.784 217.097C163.142 217.097 145.597 234.642 145.597 256.284C145.597 258.658 145.82 260.979 146.225 263.237C140.593 259.242 133.728 256.87 126.295 256.87C117.252 256.87 109.045 260.377 102.894 266.07C91.9339 249.269 72.9852 238.153 51.4309 238.153C34.7563 238.153 19.6451 244.808 8.57842 255.594C1.97561 250.528 -6.28186 247.512 -15.2464 247.512C-15.6395 247.512 -16.0273 247.53 -16.4168 247.542V451.296H-16.4238ZM907.094 461.783C907.673 461.811 908.245 461.871 908.833 461.871C914.309 461.871 919.466 460.562 924.065 458.292C924.541 460.838 925.283 463.289 926.285 465.605C920.226 466.144 914.464 467.7 909.159 470.099C908.819 467.198 908.108 464.419 907.094 461.783ZM543.994 389.28C544.996 386.964 545.738 384.515 546.212 381.967C550.811 384.238 555.969 385.547 561.444 385.547C562.032 385.547 562.602 385.487 563.183 385.459C562.17 388.093 561.458 390.874 561.119 393.772C555.817 391.376 550.053 389.821 543.994 389.28Z" fill="url(#paint2_linear_496_2)"/>
</g>
<path d="M967.623 424.99C967.623 424.99 1063.39 353.671 1093.96 353.671C1124.52 353.671 1287.54 420.915 1287.54 420.915C1287.54 420.915 967.623 420.914 967.623 424.99Z" fill="#62ACC4"/>
<path d="M183.117 378.123C130.568 339.722 41.9523 319.368 0 311.458V448.762H731.931C731.931 448.762 563.483 375.406 452.09 353.67C340.698 331.936 183.117 378.123 183.117 378.123Z" fill="#62ACC4"/>
<path d="M1316 361.209C1146.53 362.403 937.292 427.027 937.292 427.027L973.735 500.384L1316 483.022V361.209Z" fill="#B3D764"/>
<path d="M1182.33 372.437C1114.91 395.497 1085.13 434.274 1085.13 434.274H1094.18C1128.4 400.665 1188.18 378.191 1223.45 367.126C1209.68 368.665 1195.93 370.456 1182.33 372.437Z" fill="#D6EB86"/>
<path d="M0 359.144V443.329H667.784C479.268 365.628 63.3084 359.609 0 359.144Z" fill="#B3D764"/>
<path d="M223.871 402.576L268.699 388.991C245.731 378.438 215.103 370.723 188.613 365.454C157.283 363.687 128.163 362.413 102.438 361.494L233.38 388.991L189.909 403.934L302.301 443.33H307.705L223.871 402.576Z" fill="#D6EB86"/>
<path d="M73.0816 363.859C73.0816 363.859 62.2132 358.425 62.894 343.482C63.573 328.539 79.1948 281.672 79.1948 281.672C79.1948 281.672 85.9871 329.897 87.3453 343.482C88.7051 357.067 73.0816 363.859 73.0816 363.859Z" fill="#B3D764"/>
<path d="M361.073 412.763C361.073 412.763 350.205 407.329 350.884 392.386C351.563 377.443 367.185 330.576 367.185 330.576C367.185 330.576 373.977 378.802 375.335 392.386C376.697 405.971 361.073 412.763 361.073 412.763Z" fill="#B3D764"/>
<path d="M44.1233 364.419C44.1233 364.419 38.1382 361.425 38.5119 353.196C38.8857 344.965 47.4906 319.15 47.4906 319.15C47.4906 319.15 51.2315 345.712 51.9807 353.196C52.73 360.678 44.1233 364.419 44.1233 364.419Z" fill="#B3D764"/>
<path d="M923.924 298.427H894.944V341.898H923.924V298.427Z" fill="white"/>
<path d="M926.869 340.087H892.002V345.068H926.869V340.087Z" fill="#82ABA8"/>
<path d="M926.869 317.899H892.002V322.88H926.869V317.899Z" fill="#82ABA8"/>
<path d="M913.511 344.161L923.472 428.385" stroke="#82ABA8" stroke-width="0.877333" stroke-miterlimit="10"/>
<path d="M921.661 344.161L931.624 428.385" stroke="#82ABA8" stroke-width="0.877333" stroke-miterlimit="10"/>
<path d="M905.36 344.161L895.398 428.385" stroke="#82ABA8" stroke-width="0.877333" stroke-miterlimit="10"/>
<path d="M897.21 344.161L887.247 428.385" stroke="#82ABA8" stroke-width="0.877333" stroke-miterlimit="10"/>
<path d="M896.643 349.936H904.454" stroke="#82ABA8" stroke-width="0.877333" stroke-miterlimit="10"/>
<path d="M895.623 358.765H903.435" stroke="#82ABA8" stroke-width="0.877333" stroke-miterlimit="10"/>
<path d="M894.266 367.709H902.077" stroke="#82ABA8" stroke-width="0.877333" stroke-miterlimit="10"/>
<path d="M893.248 375.859H901.058" stroke="#82ABA8" stroke-width="0.877333" stroke-miterlimit="10"/>
<path d="M892.114 383.895H899.926" stroke="#82ABA8" stroke-width="0.877333" stroke-miterlimit="10"/>
<path d="M891.209 393.632H899.021" stroke="#82ABA8" stroke-width="0.877333" stroke-miterlimit="10"/>
<path d="M889.965 402.462H897.775" stroke="#82ABA8" stroke-width="0.877333" stroke-miterlimit="10"/>
<path d="M888.945 410.838H896.757" stroke="#82ABA8" stroke-width="0.877333" stroke-miterlimit="10"/>
<path d="M888.493 418.198H896.305" stroke="#82ABA8" stroke-width="0.877333" stroke-miterlimit="10"/>
<path d="M751.29 407.329H705.102V428.046H751.29V407.329Z" fill="#82ABA8"/>
<path d="M751.288 407.329H722.082V428.046H751.288V407.329Z" fill="#82ABA8"/>
<path d="M761.139 405.971H701.366V408.687H761.139V405.971Z" fill="url(#paint3_linear_496_2)"/>
<path d="M757.418 352.026L724.46 390.756H743.224L769.927 357.558L757.418 352.026Z" fill="#BA0D2F"/>
<path d="M787.97 436.343H731.437V388.402L759.702 354.481L787.97 388.402V436.343Z" fill="#82ABA8"/>
<path d="M860.862 386.666H787.97V436.318H860.862V386.666Z" fill="white"/>
<path d="M860.86 386.666H777.613V404.297H860.86V386.666Z" fill="#82ABA8"/>
<path d="M834.398 352.026L872.53 397.252H795.549L757.417 352.026H834.398Z" fill="white"/>
<path d="M834.398 352.026L872.53 397.252H795.549L757.417 352.026H834.398Z" fill="url(#paint4_linear_496_2)"/>
<path d="M812.629 411.493H806.723V422.263H812.629V411.493Z" fill="#82ABA8"/>
<path d="M824.417 411.493H818.511V422.263H824.417V411.493Z" fill="#82ABA8"/>
<path d="M893.587 427.933H830.646C830.646 427.933 833.814 416.611 841.059 416.159C848.304 415.706 853.286 423.856 853.286 423.856C853.286 423.856 858.267 408.914 865.06 408.461C871.852 408.008 877.739 421.14 877.739 421.14C877.739 421.14 877.286 415.706 882.721 415.706C888.155 415.706 889.06 424.762 889.06 424.762C889.06 424.762 893.587 419.782 893.587 427.933Z" fill="#407549"/>
<path d="M979.621 427.933H916.68C916.68 427.933 919.85 416.611 927.094 416.159C934.339 415.706 939.32 423.856 939.32 423.856C939.32 423.856 944.302 408.914 951.094 408.461C957.886 408.008 963.773 421.14 963.773 421.14C963.773 421.14 963.32 415.706 968.755 415.706C974.189 415.706 975.094 424.762 975.094 424.762C975.094 424.762 979.621 419.782 979.621 427.933Z" fill="#407549"/>
<path d="M651.717 406.636C654.272 395.869 647.615 385.069 636.848 382.514C626.081 379.959 615.281 386.616 612.726 397.383C610.171 408.15 616.828 418.95 627.595 421.505C638.362 424.06 649.162 417.403 651.717 406.636Z" fill="#407549"/>
<path d="M632.765 410.047V427.48" stroke="#407549" stroke-width="1.75467" stroke-miterlimit="10"/>
<path d="M595.478 406.827C603.269 403.58 606.953 394.632 603.705 386.841C600.458 379.05 591.51 375.367 583.72 378.614C575.929 381.861 572.246 390.809 575.493 398.6C578.74 406.391 587.688 410.074 595.478 406.827Z" fill="#407549"/>
<path d="M590.2 400.763V427.48" stroke="#407549" stroke-width="1.75467" stroke-miterlimit="10"/>
<path d="M0 427.026H1316V459.63H0V427.026Z" fill="url(#paint5_linear_496_2)"/>
<mask id="mask1_496_2" style="mask-type:luminance" maskUnits="userSpaceOnUse" x="0" y="427" width="1316" height="33">
<path d="M0 459.63L1316 459.63V427.026L0 427.026V459.63Z" fill="white"/>
</mask>
<g mask="url(#mask1_496_2)">
<path d="M4.86943 427.027H29.047L-72.3026 460.536H-100.375L4.86943 427.027Z" fill="url(#paint6_linear_496_2)"/>
<path d="M63.1449 427.027H87.3225L-4.63432 460.536H-32.709L63.1449 427.027Z" fill="url(#paint7_linear_496_2)"/>
<path d="M121.421 427.027H145.6L63.0327 460.536H34.958L121.421 427.027Z" fill="url(#paint8_linear_496_2)"/>
<path d="M179.699 427.027H203.876L130.7 460.536H102.625L179.699 427.027Z" fill="url(#paint9_linear_496_2)"/>
<path d="M237.975 427.027H262.152L198.367 460.536H170.292L237.975 427.027Z" fill="url(#paint10_linear_496_2)"/>
<path d="M296.251 427.027H320.428L266.034 460.536H237.959L296.251 427.027Z" fill="url(#paint11_linear_496_2)"/>
<path d="M354.527 427.027H378.706L333.701 460.536H305.626L354.527 427.027Z" fill="url(#paint12_linear_496_2)"/>
<path d="M412.805 427.027H436.982L401.368 460.536H373.293L412.805 427.027Z" fill="url(#paint13_linear_496_2)"/>
<path d="M471.081 427.027H495.258L469.035 460.536H440.96L471.081 427.027Z" fill="url(#paint14_linear_496_2)"/>
<path d="M529.357 427.027H553.536L536.702 460.536H508.627L529.357 427.027Z" fill="url(#paint15_linear_496_2)"/>
<path d="M587.633 427.027H611.812L604.369 460.536H576.294L587.633 427.027Z" fill="url(#paint16_linear_496_2)"/>
<path d="M645.911 427.027H670.088L672.036 460.536H643.963L645.911 427.027Z" fill="url(#paint17_linear_496_2)"/>
<path d="M704.187 427.027H728.366L739.703 460.536H711.63L704.187 427.027Z" fill="url(#paint18_linear_496_2)"/>
<path d="M762.463 427.027H786.642L807.372 460.536H779.297L762.463 427.027Z" fill="url(#paint19_linear_496_2)"/>
<path d="M820.74 427.027H844.918L875.038 460.536H846.964L820.74 427.027Z" fill="url(#paint20_linear_496_2)"/>
<path d="M879.016 427.027H903.193L942.705 460.536H914.63L879.016 427.027Z" fill="url(#paint21_linear_496_2)"/>
<path d="M937.292 427.027H961.471L1010.37 460.536H982.297L937.292 427.027Z" fill="url(#paint22_linear_496_2)"/>
<path d="M995.569 427.027H1019.75L1078.04 460.536H1049.96L995.569 427.027Z" fill="url(#paint23_linear_496_2)"/>
<path d="M1053.85 427.027H1078.02L1145.71 460.536H1117.63L1053.85 427.027Z" fill="url(#paint24_linear_496_2)"/>
<path d="M1112.12 427.027H1136.3L1213.38 460.536H1185.3L1112.12 427.027Z" fill="url(#paint25_linear_496_2)"/>
<path d="M1170.4 427.027H1194.58L1281.04 460.536H1252.97L1170.4 427.027Z" fill="url(#paint26_linear_496_2)"/>
<path d="M1228.67 427.027H1252.85L1348.71 460.536H1320.63L1228.67 427.027Z" fill="url(#paint27_linear_496_2)"/>
<path d="M1286.95 427.027H1311.13L1416.38 460.536H1388.3L1286.95 427.027Z" fill="url(#paint28_linear_496_2)"/>
</g>
<path d="M0 458.272H1316V632H0V458.272Z" fill="url(#paint29_linear_496_2)"/>
<path d="M0 458.27L1316 458.27V451.478L0 451.478V458.27Z" fill="#B3D764"/>
<path d="M0 632L1316 632V539.099L0 539.099V632Z" fill="#305E47"/>
<path d="M0 489.516L1316 489.516V484.082L0 484.082V489.516Z" fill="#B3D764"/>
<path d="M0 501.288L1316 501.288V500.383L0 500.383V501.288Z" fill="#B3D764"/>
<path d="M751.291 407.329H705.103V428.046H751.291V407.329Z" fill="#82ABA8"/>
<path d="M908.869 282.692L888.831 302.339H928.906L908.869 282.692Z" fill="url(#paint30_linear_496_2)"/>
<path d="M1316 161.512C1314.03 160.27 1312.02 159.977 1309.95 160.77C1284.14 166.204 1246.1 462.346 1246.1 462.346C1246.1 462.346 1231.84 439.932 1229.8 456.233C1227.98 470.813 1247.34 496.785 1251.45 502.112C1247.05 496.531 1224.7 469.074 1215.54 474.573C1209.43 527.553 1259.69 559.476 1259.69 559.476C1259.69 559.476 1273.87 577.496 1316 570.92V161.512Z" fill="#22473A"/>
<path d="M649.721 553.486C649.721 553.486 623.645 536.923 626.815 509.436C632.1 506.266 645.845 524.237 645.845 524.237C645.845 524.237 633.158 508.38 634.216 499.923C635.275 491.465 642.674 503.093 642.674 503.093C642.674 503.093 662.407 349.451 675.799 346.633C694.123 339.585 705.047 495.694 703.989 517.894C705.047 516.838 714.561 500.979 717.732 507.322C720.902 513.665 702.931 534.809 702.931 534.809C702.931 534.809 713.503 522.123 718.788 526.351C724.073 530.58 705.888 554.549 680.729 559.123C657.473 563.354 649.721 553.486 649.721 553.486Z" fill="#22473A"/>
<path d="M593.801 553.724C593.801 553.724 581.097 545.654 582.641 532.264C585.217 530.718 591.911 539.474 591.911 539.474C591.911 539.474 585.731 531.748 586.245 527.629C586.759 523.509 590.365 529.174 590.365 529.174C590.365 529.174 599.979 454.322 606.503 452.95C615.43 449.516 620.752 525.57 620.236 536.386C620.751 535.87 625.386 528.146 626.932 531.236C628.478 534.326 619.722 544.628 619.722 544.628C619.722 544.628 624.872 538.448 627.448 540.508C630.024 542.568 621.163 554.245 608.906 556.473C597.577 558.532 593.801 553.724 593.801 553.724Z" fill="#22473A"/>
<path d="M0 631.999L1316 631.999V551.325L0 551.325V631.999Z" fill="#22473A"/>
<path d="M1311.56 555.324C1296.13 529.118 1258.7 535.439 1258.7 535.439C1245.24 517.892 1221.26 524.911 1221.26 524.911C1221.26 524.911 1213.07 503.855 1183.83 506.194C1154.59 508.533 1151.08 538.948 1151.08 538.948C1132.77 538.49 1121.99 550.204 1118.16 555.324H1311.56Z" fill="#22473A"/>
<path d="M1135.33 559.597C1127.43 546.177 1108.26 549.415 1108.26 549.415C1101.37 540.429 1089.09 544.022 1089.09 544.022C1089.09 544.022 1084.89 533.24 1069.92 534.438C1054.94 535.637 1053.15 551.211 1053.15 551.211C1043.77 550.978 1038.25 556.975 1036.29 559.597H1135.33Z" fill="#22473A"/>
<path d="M1038.4 559.962C1038.4 559.962 1011.45 531.15 990.76 520.901C990.76 520.901 1026.66 540.862 1043.89 560.497L1038.4 559.962Z" fill="#22473A"/>
<path d="M1043.66 556.937C1043.66 556.937 1032.94 533.224 1022.19 522.435C1022.19 522.435 1040.37 542.517 1046.97 558.434L1043.66 556.937Z" fill="#22473A"/>
<path d="M338.599 573.618C338.599 573.618 363.286 542.84 383.136 531.047C383.136 531.047 348.861 553.68 333.174 574.568L338.599 573.618Z" fill="#22473A"/>
<path d="M333.132 571.002C333.132 571.002 342.017 546.544 351.912 534.968C351.912 534.968 335.309 556.375 329.945 572.748L333.132 571.002Z" fill="#22473A"/>
<path d="M725.139 554.721C725.139 554.721 725.818 542.494 742.119 542.494C742.119 542.494 740.761 524.154 766.572 524.154C791.704 524.154 794.42 540.455 794.42 540.455C794.42 540.455 809.363 533.663 816.155 545.889C816.155 545.889 831.777 539.776 840.608 558.795H714.951L725.139 554.721Z" fill="#22473A"/>
<path d="M286.36 554.721C286.36 554.721 285.681 542.494 269.38 542.494C269.38 542.494 270.738 524.154 244.927 524.154C219.795 524.154 217.079 540.455 217.079 540.455C217.079 540.455 202.136 533.663 195.344 545.889C195.344 545.889 179.722 539.776 170.893 558.795H296.55L286.36 554.721Z" fill="#22473A"/>
<path d="M892.229 556.76C892.229 556.76 875.928 545.891 878.644 543.854C881.36 541.817 889.511 548.609 889.511 548.609C889.511 548.609 871.171 535.704 877.963 533.666C884.755 531.629 900.377 548.609 900.377 548.609C900.377 548.609 891.548 541.138 900.377 539.78C909.207 538.422 914.641 550.646 914.641 550.646C914.641 550.646 909.207 543.175 916.678 544.533C924.149 545.891 933.658 556.081 933.658 556.081C933.658 556.081 893.248 555.74 892.229 556.76Z" fill="#22473A"/>
<path d="M960.152 557.439C960.152 557.439 956.983 543.854 947.473 537.062C957.887 539.778 962.415 550.194 962.415 550.194L965.584 542.043L970.113 556.081L960.152 557.439Z" fill="#22473A"/>
<path d="M576.163 558.57C576.163 558.57 572.994 544.986 563.483 538.193C573.899 540.91 578.426 551.325 578.426 551.325L581.595 543.175L586.124 557.212L576.163 558.57Z" fill="#22473A"/>
<path d="M499.636 555.4C499.636 555.4 491.486 545.891 476.543 539.099C490.807 542.496 500.315 548.607 500.315 548.607L493.523 541.815C493.523 541.815 503.031 539.778 512.542 554.721C512.542 554.721 517.976 545.891 528.843 543.854C526.126 545.891 519.334 555.402 519.334 555.402H499.636V555.4Z" fill="#22473A"/>
<path d="M39.1201 557.439C39.1201 557.439 46.3651 538.42 55.421 535.704C60.8552 532.988 57.2318 547.478 57.2318 547.478C57.2318 547.478 70.8164 524.837 80.7777 526.648C90.7389 528.459 73.5326 545.667 73.5326 545.667C73.5326 545.667 87.1173 533.893 91.6461 539.327C96.1749 544.761 78.9668 561.062 78.9668 561.062L39.1201 557.439Z" fill="#22473A"/>
<path d="M393.995 557.861H459.261C462.581 554.617 464.199 550.836 457.022 548.879C451.629 547.409 448.212 548.192 446.036 549.715C448.49 544.41 450.234 537.972 444.191 537.972C439.614 537.972 437.086 540.524 435.68 543.35C437.549 533.968 439.265 518.961 431.359 518.083C419.81 516.801 421.094 546.314 421.094 546.314C421.094 546.314 420.452 529.632 414.037 530.915C407.62 532.198 414.679 546.955 414.679 546.955C414.679 546.955 403.772 525.141 396.072 532.84C390.556 538.357 396.885 547.472 400.924 552.21C396.569 547.76 388.657 540.845 387.732 548.237C387.125 553.087 390.387 556.059 393.995 557.861Z" fill="#22473A"/>
<defs>
<linearGradient id="paint0_linear_496_2" x1="661.291" y1="17.2693" x2="658.91" y2="433.77" gradientUnits="userSpaceOnUse">
<stop stop-color="white"/>
<stop offset="1" stop-color="#C1FFFF"/>
</linearGradient>
<linearGradient id="paint1_linear_496_2" x1="665.264" y1="10.0489" x2="665.264" y2="373.875" gradientUnits="userSpaceOnUse">
<stop offset="2.2e-07" stop-color="#FFFFFB"/>
<stop offset="1" stop-color="#C1FFFF" stop-opacity="0.4"/>
</linearGradient>
<linearGradient id="paint2_linear_496_2" x1="665.264" y1="222.364" x2="665.264" y2="547.02" gradientUnits="userSpaceOnUse">
<stop offset="2.2e-07" stop-color="#FFFFFB"/>
<stop offset="1" stop-color="#C1FFFF" stop-opacity="0.6"/>
</linearGradient>
<linearGradient id="paint3_linear_496_2" x1="701.366" y1="407.33" x2="761.138" y2="407.33" gradientUnits="userSpaceOnUse">
<stop stop-color="#FF8253"/>
<stop offset="1" stop-color="#BA0D2F"/>
</linearGradient>
<linearGradient id="paint4_linear_496_2" x1="757.417" y1="374.639" x2="872.531" y2="374.639" gradientUnits="userSpaceOnUse">
<stop stop-color="#FF8253"/>
<stop offset="1" stop-color="#BA0D2F"/>
</linearGradient>
<linearGradient id="paint5_linear_496_2" x1="659.252" y1="309.416" x2="656.534" y2="600.131" gradientUnits="userSpaceOnUse">
<stop stop-color="#BECB01"/>
<stop offset="0.161" stop-color="#B3C304"/>
<stop offset="0.4413" stop-color="#97AD0D"/>
<stop offset="0.805" stop-color="#698A1B"/>
<stop offset="1" stop-color="#4D7524"/>
</linearGradient>
<linearGradient id="paint6_linear_496_2" x1="-34.6966" y1="340.243" x2="-36.7974" y2="565.017" gradientUnits="userSpaceOnUse">
<stop stop-color="#CDDB01"/>
<stop offset="0.1462" stop-color="#C2D204"/>
<stop offset="0.4007" stop-color="#A6BC0C"/>
<stop offset="0.7309" stop-color="#789718"/>
<stop offset="1" stop-color="#4D7524"/>
</linearGradient>
<linearGradient id="paint7_linear_496_2" x1="28.2723" y1="340.505" x2="26.1767" y2="564.711" gradientUnits="userSpaceOnUse">
<stop stop-color="#CDDB01"/>
<stop offset="0.1462" stop-color="#C2D204"/>
<stop offset="0.4007" stop-color="#A6BC0C"/>
<stop offset="0.7309" stop-color="#789718"/>
<stop offset="1" stop-color="#4D7524"/>
</linearGradient>
<linearGradient id="paint8_linear_496_2" x1="91.2416" y1="340.767" x2="89.1514" y2="564.404" gradientUnits="userSpaceOnUse">
<stop stop-color="#CDDB01"/>
<stop offset="0.1462" stop-color="#C2D204"/>
<stop offset="0.4007" stop-color="#A6BC0C"/>
<stop offset="0.7309" stop-color="#789718"/>
<stop offset="1" stop-color="#4D7524"/>
</linearGradient>
<linearGradient id="paint9_linear_496_2" x1="154.211" y1="341.029" x2="152.126" y2="564.098" gradientUnits="userSpaceOnUse">
<stop stop-color="#CDDB01"/>
<stop offset="0.1462" stop-color="#C2D204"/>
<stop offset="0.4007" stop-color="#A6BC0C"/>
<stop offset="0.7309" stop-color="#789718"/>
<stop offset="1" stop-color="#4D7524"/>
</linearGradient>
<linearGradient id="paint10_linear_496_2" x1="217.18" y1="341.29" x2="215.101" y2="563.791" gradientUnits="userSpaceOnUse">
<stop stop-color="#CDDB01"/>
<stop offset="0.1462" stop-color="#C2D204"/>
<stop offset="0.4007" stop-color="#A6BC0C"/>
<stop offset="0.7309" stop-color="#789718"/>
<stop offset="1" stop-color="#4D7524"/>
</linearGradient>
<linearGradient id="paint11_linear_496_2" x1="280.15" y1="341.552" x2="278.075" y2="563.485" gradientUnits="userSpaceOnUse">
<stop stop-color="#CDDB01"/>
<stop offset="0.1462" stop-color="#C2D204"/>
<stop offset="0.4007" stop-color="#A6BC0C"/>
<stop offset="0.7309" stop-color="#789718"/>
<stop offset="1" stop-color="#4D7524"/>
</linearGradient>
<linearGradient id="paint12_linear_496_2" x1="343.119" y1="341.814" x2="341.05" y2="563.178" gradientUnits="userSpaceOnUse">
<stop stop-color="#CDDB01"/>
<stop offset="0.1462" stop-color="#C2D204"/>
<stop offset="0.4007" stop-color="#A6BC0C"/>
<stop offset="0.7309" stop-color="#789718"/>
<stop offset="1" stop-color="#4D7524"/>
</linearGradient>
<linearGradient id="paint13_linear_496_2" x1="406.088" y1="342.076" x2="404.025" y2="562.872" gradientUnits="userSpaceOnUse">
<stop stop-color="#CDDB01"/>
<stop offset="0.1462" stop-color="#C2D204"/>
<stop offset="0.4007" stop-color="#A6BC0C"/>
<stop offset="0.7309" stop-color="#789718"/>
<stop offset="1" stop-color="#4D7524"/>
</linearGradient>
<linearGradient id="paint14_linear_496_2" x1="469.058" y1="342.337" x2="466.999" y2="562.565" gradientUnits="userSpaceOnUse">
<stop stop-color="#CDDB01"/>
<stop offset="0.1462" stop-color="#C2D204"/>
<stop offset="0.4007" stop-color="#A6BC0C"/>
<stop offset="0.7309" stop-color="#789718"/>
<stop offset="1" stop-color="#4D7524"/>
</linearGradient>
<linearGradient id="paint15_linear_496_2" x1="532.027" y1="342.599" x2="529.974" y2="562.259" gradientUnits="userSpaceOnUse">
<stop stop-color="#CDDB01"/>
<stop offset="0.1462" stop-color="#C2D204"/>
<stop offset="0.4007" stop-color="#A6BC0C"/>
<stop offset="0.7309" stop-color="#789718"/>
<stop offset="1" stop-color="#4D7524"/>
</linearGradient>
<linearGradient id="paint16_linear_496_2" x1="594.997" y1="342.861" x2="592.949" y2="561.952" gradientUnits="userSpaceOnUse">
<stop stop-color="#CDDB01"/>
<stop offset="0.1462" stop-color="#C2D204"/>
<stop offset="0.4007" stop-color="#A6BC0C"/>
<stop offset="0.7309" stop-color="#789718"/>
<stop offset="1" stop-color="#4D7524"/>
</linearGradient>
<linearGradient id="paint17_linear_496_2" x1="659.097" y1="343.133" x2="657.054" y2="561.656" gradientUnits="userSpaceOnUse">
<stop stop-color="#CDDB01"/>
<stop offset="0.1462" stop-color="#C2D204"/>
<stop offset="0.4007" stop-color="#A6BC0C"/>
<stop offset="0.7309" stop-color="#789718"/>
<stop offset="1" stop-color="#4D7524"/>
</linearGradient>
<linearGradient id="paint18_linear_496_2" x1="722.883" y1="343.402" x2="720.846" y2="561.357" gradientUnits="userSpaceOnUse">
<stop stop-color="#CDDB01"/>
<stop offset="0.1462" stop-color="#C2D204"/>
<stop offset="0.4007" stop-color="#A6BC0C"/>
<stop offset="0.7309" stop-color="#789718"/>
<stop offset="1" stop-color="#4D7524"/>
</linearGradient>
<linearGradient id="paint19_linear_496_2" x1="785.853" y1="343.664" x2="783.821" y2="561.051" gradientUnits="userSpaceOnUse">
<stop stop-color="#CDDB01"/>
<stop offset="0.1462" stop-color="#C2D204"/>
<stop offset="0.4007" stop-color="#A6BC0C"/>
<stop offset="0.7309" stop-color="#789718"/>
<stop offset="1" stop-color="#4D7524"/>
</linearGradient>
<linearGradient id="paint20_linear_496_2" x1="848.822" y1="343.926" x2="846.796" y2="560.744" gradientUnits="userSpaceOnUse">
<stop stop-color="#CDDB01"/>
<stop offset="0.1462" stop-color="#C2D204"/>
<stop offset="0.4007" stop-color="#A6BC0C"/>
<stop offset="0.7309" stop-color="#789718"/>
<stop offset="1" stop-color="#4D7524"/>
</linearGradient>
<linearGradient id="paint21_linear_496_2" x1="911.791" y1="344.188" x2="909.77" y2="560.438" gradientUnits="userSpaceOnUse">
<stop stop-color="#CDDB01"/>
<stop offset="0.1462" stop-color="#C2D204"/>
<stop offset="0.4007" stop-color="#A6BC0C"/>
<stop offset="0.7309" stop-color="#789718"/>
<stop offset="1" stop-color="#4D7524"/>
</linearGradient>
<linearGradient id="paint22_linear_496_2" x1="974.761" y1="344.449" x2="972.745" y2="560.131" gradientUnits="userSpaceOnUse">
<stop stop-color="#CDDB01"/>
<stop offset="0.1462" stop-color="#C2D204"/>
<stop offset="0.4007" stop-color="#A6BC0C"/>
<stop offset="0.7309" stop-color="#789718"/>
<stop offset="1" stop-color="#4D7524"/>
</linearGradient>
<linearGradient id="paint23_linear_496_2" x1="1037.73" y1="344.711" x2="1035.72" y2="559.825" gradientUnits="userSpaceOnUse">
<stop stop-color="#CDDB01"/>
<stop offset="0.1462" stop-color="#C2D204"/>
<stop offset="0.4007" stop-color="#A6BC0C"/>
<stop offset="0.7309" stop-color="#789718"/>
<stop offset="1" stop-color="#4D7524"/>
</linearGradient>
<linearGradient id="paint24_linear_496_2" x1="1100.7" y1="344.973" x2="1098.69" y2="559.518" gradientUnits="userSpaceOnUse">
<stop stop-color="#CDDB01"/>
<stop offset="0.1462" stop-color="#C2D204"/>
<stop offset="0.4007" stop-color="#A6BC0C"/>
<stop offset="0.7309" stop-color="#789718"/>
<stop offset="1" stop-color="#4D7524"/>
</linearGradient>
<linearGradient id="paint25_linear_496_2" x1="1163.67" y1="345.235" x2="1161.67" y2="559.212" gradientUnits="userSpaceOnUse">
<stop stop-color="#CDDB01"/>
<stop offset="0.1462" stop-color="#C2D204"/>
<stop offset="0.4007" stop-color="#A6BC0C"/>
<stop offset="0.7309" stop-color="#789718"/>
<stop offset="1" stop-color="#4D7524"/>
</linearGradient>
<linearGradient id="paint26_linear_496_2" x1="1226.64" y1="345.496" x2="1224.64" y2="558.905" gradientUnits="userSpaceOnUse">
<stop stop-color="#CDDB01"/>
<stop offset="0.1462" stop-color="#C2D204"/>
<stop offset="0.4007" stop-color="#A6BC0C"/>
<stop offset="0.7309" stop-color="#789718"/>
<stop offset="1" stop-color="#4D7524"/>
</linearGradient>
<linearGradient id="paint27_linear_496_2" x1="1289.61" y1="345.758" x2="1287.62" y2="558.599" gradientUnits="userSpaceOnUse">
<stop stop-color="#CDDB01"/>
<stop offset="0.1462" stop-color="#C2D204"/>
<stop offset="0.4007" stop-color="#A6BC0C"/>
<stop offset="0.7309" stop-color="#789718"/>
<stop offset="1" stop-color="#4D7524"/>
</linearGradient>
<linearGradient id="paint28_linear_496_2" x1="1352.58" y1="346.02" x2="1350.59" y2="558.292" gradientUnits="userSpaceOnUse">
<stop stop-color="#CDDB01"/>
<stop offset="0.1462" stop-color="#C2D204"/>
<stop offset="0.4007" stop-color="#A6BC0C"/>
<stop offset="0.7309" stop-color="#789718"/>
<stop offset="1" stop-color="#4D7524"/>
</linearGradient>
<linearGradient id="paint29_linear_496_2" x1="659.594" y1="659.877" x2="657.257" y2="491.638" gradientUnits="userSpaceOnUse">
<stop stop-color="#264F40"/>
<stop offset="0.3071" stop-color="#305A3B"/>
<stop offset="0.84" stop-color="#4B762D"/>
<stop offset="1" stop-color="#548028"/>
</linearGradient>
<linearGradient id="paint30_linear_496_2" x1="913.333" y1="310.491" x2="902.919" y2="291.473" gradientUnits="userSpaceOnUse">
<stop stop-color="#59A3BA"/>
<stop offset="1" stop-color="#63C2E0"/>
</linearGradient>
</defs>
</svg>
