<svg width="1414" height="987" viewBox="0 0 1414 987" fill="none" xmlns="http://www.w3.org/2000/svg">
<mask id="mask0_558_311" style="mask-type:alpha" maskUnits="userSpaceOnUse" x="0" y="0" width="1414" height="987">
<rect width="1414" height="987" fill="#D9D9D9"/>
</mask>
<g mask="url(#mask0_558_311)">
<path d="M1431 -24H-9V1038H1431V-24Z" fill="url(#paint0_linear_558_311)"/>
<path d="M773.851 573.09C462.85 552.411 150.024 563.432 -159 605.941V53H-37.9056C-38.0016 68.5712 -41.2464 84.0464 -47.9856 98.0048C-35.0064 90.3056 -18.4368 89.9792 -5.18879 97.1408C8.04001 104.283 17.5824 118.741 15.4128 137.422C30.4848 103.323 64.6224 79.784 99.9888 79.112C135.355 78.44 170.242 100.674 186.446 134.178C202.632 167.701 199.33 210.882 178.267 241.179C199.886 230.254 226.421 249.838 233.314 274.242C240.187 298.664 233.141 324.872 225.595 356.053C267.298 351.061 310.843 369.454 338.03 403.534C337.57 385.16 354.139 370.376 371.15 367.419C388.181 364.482 405.365 370.28 421.742 376.021C404.885 339.867 416.002 291.522 446.664 267.79C477.326 244.04 523.906 247.707 550.958 275.989C578.011 304.251 582.37 353.806 560.712 386.946C589.282 378.632 620.981 409.467 622.958 449.73C654.274 410.696 715.061 403.899 753.288 435.157C791.515 466.395 801.115 530.754 773.851 573.09Z" fill="#FCFEFC"/>
<path d="M1443 298.8V634.781C1291.86 622.8 1140.12 597.11 971.429 545.021C977.957 505.162 1025.09 482.659 1054.6 505.315C1065.47 489.629 1086.57 484.598 1102.03 494.006C1086.28 450.134 1104.48 394.186 1141.54 372.586C1178.6 350.986 1229.09 366.883 1251.15 407.088C1269.8 393.494 1297.46 399.638 1310.23 420.259C1308.68 397.258 1319.83 373.757 1337.59 362.659C1355.35 351.542 1378.76 353.405 1394.98 367.248C1398.23 336.662 1418.16 310.32 1443 298.8Z" fill="#FCFEFC"/>
<path d="M1222.05 230.294H1016.61C1017.55 220.483 1029.8 212.246 1037.84 218.16C1036.25 210.768 1044.29 203.146 1046.81 205.277C1049.17 192.72 1065.47 185.194 1076.55 191.549C1075.8 180.355 1084.96 169.392 1096.11 168.163C1107.27 166.934 1118.6 175.613 1120.31 186.71C1124.93 180.298 1136.89 182.275 1139.2 189.859C1143.31 178.224 1158.21 171.811 1169.48 176.842C1180.75 181.872 1185.93 197.232 1180.04 208.061C1184.16 204.259 1190.94 203.76 1195.59 206.89C1200.22 210.038 1202.27 216.547 1200.24 221.77C1204.61 215.606 1215.23 216.605 1219.57 222.787C1221.12 225.034 1221.91 227.626 1222.05 230.294Z" fill="#FCFEFC"/>
<path d="M705.355 153.302H569.918C572.088 147.907 579.653 145.546 584.51 148.771C584.51 135.37 599.621 131.242 605.15 136.771C602.232 128.573 611.87 119.126 620.011 122.179C617.362 112.08 627.307 100.905 637.656 102.384C648.005 103.862 654.398 117.379 649.022 126.326C653.861 120.662 664.651 122.544 667.301 129.494C669.144 121.334 679.339 116.265 686.962 119.741C694.584 123.216 697.445 134.237 692.491 140.976C696.274 138.902 701.477 139.901 704.223 143.241C706.469 145.987 706.853 150.077 705.355 153.302Z" fill="#FCFEFC"/>
<path d="M1103.25 938.528C1103.25 938.528 931.085 839.11 849.987 841.027C768.889 842.945 647 971.987 647 971.987C647 971.987 848.812 1064.14 1191.76 943.503C1223.42 942.734 1103.25 938.528 1103.25 938.528Z" fill="#BCDDB8"/>
<path d="M708.711 825.638H891.044C891.044 825.638 890.355 817.021 875.879 817.71C875.19 803.579 855.199 794.962 842.101 806.336C851.752 782.554 845.892 764.975 829.349 763.252C812.804 761.528 801.774 778.761 798.672 789.446C788.677 778.761 786.609 787.723 786.264 789.446C771.099 772.901 750.763 778.417 744.558 784.966C738.353 791.516 739.733 807.025 739.733 807.025C739.733 807.025 718.019 797.719 713.193 807.715C708.366 817.71 716.983 821.157 716.983 821.157C716.983 821.157 709.745 819.779 708.711 825.638Z" fill="white"/>
<path d="M436.892 705.221C436.892 705.221 217.639 488.688 135.74 488.688C77.0542 488.688 -33 575.295 -33 575.295V712.757L436.892 705.221Z" fill="#BCDDB8"/>
<path d="M1454.2 882.749C1454.2 882.749 1407.69 853.315 1369.07 833.445C1330.45 813.575 1245.44 864.302 1164.5 938.979C1335.41 973.681 1454.2 959.601 1454.2 959.601V882.749Z" fill="#BCDDB8"/>
<path d="M1028.76 853.664H1016.72V1012.52H1028.76V853.664Z" fill="#872A21"/>
<path d="M1036.66 573.078C1030.7 559.118 1014.78 559.118 1008.82 573.078C985.003 628.911 938.964 745.389 939 811.535C939.01 833.61 962.589 851.37 984.715 863.172C1008.99 876.125 1036.48 876.125 1060.75 863.172C1082.88 851.365 1106.46 833.61 1106.47 811.535C1106.51 745.389 1060.47 628.911 1036.66 573.078Z" fill="#569171"/>
<path d="M1037.23 851.756C1013.89 842.568 988.429 827.632 985.886 805.702C978.367 740.937 1009.7 622.507 1027.12 563.392C1020.4 560.994 1012.6 564.209 1008.82 573.073C984.998 628.906 938.964 745.385 939 811.531C939.01 833.605 962.589 851.365 984.715 863.168C1008.99 876.121 1036.48 876.121 1060.75 863.168C1064.08 861.396 1067.42 859.49 1070.73 857.451C1059.59 857.97 1048.25 856.096 1037.23 851.756Z" fill="#3A6D50"/>
<path d="M1510.68 520.735C1504.58 506.422 1488.25 506.422 1482.15 520.735C1457.73 577.976 1410.53 697.392 1410.57 765.202C1410.58 787.831 1434.75 806.038 1457.44 818.144C1482.33 831.425 1510.5 831.425 1535.39 818.144C1558.08 806.038 1582.25 787.836 1582.26 765.202C1582.3 697.392 1535.11 577.976 1510.68 520.735Z" fill="#569171"/>
<path d="M1511.27 806.438C1487.35 797.019 1461.25 781.708 1458.64 759.223C1450.94 692.825 1483.05 571.411 1500.91 510.807C1494.03 508.347 1486.03 511.644 1482.15 520.735C1457.73 577.975 1410.54 697.391 1410.57 765.201C1410.58 787.83 1434.75 806.037 1457.44 818.143C1482.33 831.424 1510.51 831.424 1535.4 818.143C1538.8 816.325 1542.24 814.373 1545.62 812.283C1534.2 812.806 1522.57 810.886 1511.27 806.438Z" fill="#3A6D50"/>
<path d="M1104.6 765.009L1005.47 824.165V956.873H1104.6H1203.74V824.165L1104.6 765.009Z" fill="#872A21"/>
<path d="M1392.41 824.165H1203.74V956.873H1392.41V824.165Z" fill="#9E3A35"/>
<path d="M1104.6 765.007L1003.85 827.805L974.283 826.562L1104.6 743.421V765.007Z" fill="#3F0B0A"/>
<path d="M1104.6 765.007L1205.36 827.804L1234.93 826.562L1104.6 743.421V765.007Z" fill="#3F0B0A"/>
<path d="M1104.6 743.421H1315.65L1424.38 826.562H1234.93L1104.6 743.421Z" fill="#602C2C"/>
<path d="M1169.77 875.329H1029.86V956.872H1169.77V875.329Z" fill="#3F0B0A"/>
<path d="M1127.13 818.37C1127.13 829.299 1118.27 838.159 1107.35 838.159C1096.42 838.159 1087.56 829.299 1087.56 818.37C1087.56 807.441 1096.42 798.586 1107.35 798.586C1118.27 798.581 1127.13 807.441 1127.13 818.37Z" fill="#5E1410"/>
<path d="M1111.6 799.064C1102.72 801.011 1096.06 808.9 1096.06 818.37C1096.06 827.836 1102.72 835.725 1111.6 837.676C1120.48 835.73 1127.13 827.841 1127.13 818.37C1127.13 808.905 1120.48 801.011 1111.6 799.064Z" fill="#3F0B0A"/>
<path d="M1205.36 827.806L1392.4 896.114V826.563H1234.93L1205.36 827.806Z" fill="#3F0B0A"/>
<path d="M894.002 981.79C894.002 981.79 1160.4 911.245 1454.2 915.347C1454.2 1001.32 1454.2 1001.32 1454.2 1001.32H892.322L894.002 981.79Z" fill="#AFB557"/>
<path d="M337.739 625.611L482.412 637.31L482.965 630.475L338.292 618.775L337.739 625.611Z" fill="#210B0D"/>
<path d="M336.104 645.823L480.777 657.522L481.33 650.687L336.657 638.987L336.104 645.823Z" fill="#210B0D"/>
<path d="M474.637 655.598L480.903 656.105L482.976 630.474L476.71 629.967L474.637 655.598Z" fill="#210B0D"/>
<path d="M429.066 651.913L435.331 652.42L437.404 626.789L431.138 626.283L429.066 651.913Z" fill="#210B0D"/>
<path d="M383.496 648.227L389.762 648.734L391.834 623.103L385.569 622.597L383.496 648.227Z" fill="#210B0D"/>
<path d="M144.929 544.737H152.573V530.271H144.929V544.737Z" fill="#A0931D"/>
<path d="M144.929 544.738H152.573V540.109H144.929V544.738Z" fill="#726718"/>
<path d="M155.267 544.737H162.91V530.271H155.267V544.737Z" fill="#A0931D"/>
<path d="M155.267 544.738H162.91V540.109H155.267V544.738Z" fill="#726718"/>
<path d="M299.004 632.038L307.235 623.806L264.236 580.807L256.004 589.039L299.004 632.038Z" fill="#210B0D"/>
<path d="M303.578 679.099C331.358 679.099 353.878 656.579 353.878 628.799C353.878 601.019 331.358 578.499 303.578 578.499C275.798 578.499 253.278 601.019 253.278 628.799C253.278 656.579 275.798 679.099 303.578 679.099Z" fill="#351216"/>
<path d="M320.821 670.398C343.795 660.881 354.704 634.543 345.188 611.57C335.672 588.596 309.333 577.687 286.36 587.203C263.386 596.719 252.477 623.057 261.993 646.031C271.509 669.004 297.847 679.914 320.821 670.398Z" fill="#210B0D"/>
<path d="M303.578 654.344C317.687 654.344 329.124 642.907 329.124 628.799C329.124 614.691 317.687 603.253 303.578 603.253C289.47 603.253 278.033 614.691 278.033 628.799C278.033 642.907 289.47 654.344 303.578 654.344Z" stroke="#1D1D1B" stroke-width="0.599599" stroke-miterlimit="10"/>
<path d="M303.578 658.743C320.116 658.743 333.522 645.336 333.522 628.799C333.522 612.261 320.116 598.854 303.578 598.854C287.04 598.854 273.634 612.261 273.634 628.799C273.634 645.336 287.04 658.743 303.578 658.743Z" fill="#CDC12D"/>
<path d="M312.515 636.152C316.566 631.211 315.844 623.921 310.903 619.87C305.961 615.818 298.671 616.54 294.62 621.481C290.569 626.423 291.29 633.713 296.232 637.764C301.173 641.815 308.463 641.094 312.515 636.152Z" fill="#00552B"/>
<path d="M190.075 557.987L211.407 508.727C212.767 505.587 215.862 503.555 219.284 503.555H296.009C299.46 503.555 302.431 505.986 303.118 509.367L314.798 566.987C333.835 571.113 345.121 581.344 349.7 586.381C351.094 587.915 350.985 590.279 349.454 591.675C347.918 593.075 345.56 592.936 344.147 591.412C334.048 580.505 319.615 573.671 303.579 573.671C273.561 573.671 249.148 597.598 248.33 627.419H113.618C109.45 627.419 106.072 624.04 106.072 619.873V608.989L101.357 598.703V567.709C101.357 562.34 105.71 557.987 111.08 557.987H190.075Z" fill="#569171"/>
<path d="M177.217 606.419C178.868 606.419 180.218 605.069 180.218 603.419V570.418C180.218 568.767 178.868 567.417 177.217 567.417C175.567 567.417 174.217 568.767 174.217 570.418V603.419C174.217 605.069 175.567 606.419 177.217 606.419Z" fill="#0A492C"/>
<path d="M166.932 606.419C168.582 606.419 169.932 605.069 169.932 603.419V570.418C169.932 568.767 168.582 567.417 166.932 567.417C165.282 567.417 163.932 568.767 163.932 570.418V603.419C163.932 605.069 165.282 606.419 166.932 606.419Z" fill="#0A492C"/>
<path d="M156.644 606.419C158.294 606.419 159.644 605.069 159.644 603.419V570.418C159.644 568.767 158.294 567.417 156.644 567.417C154.994 567.417 153.644 568.767 153.644 570.418V603.419C153.644 605.069 154.994 606.419 156.644 606.419Z" fill="#0A492C"/>
<path d="M265.508 509.984H221.716C219.688 509.984 217.861 511.211 217.094 513.089L200.014 554.879C199.158 556.977 200.699 559.274 202.966 559.274H265.508V509.984Z" fill="#E2F7F2"/>
<path d="M271.938 559.274V509.984H292.208C294.378 509.984 296.247 511.516 296.671 513.644L305.063 555.6C305.443 557.5 303.989 559.274 302.051 559.274H271.938Z" fill="#E2F7F2"/>
<path d="M229.507 509.984H265.509V559.274H248.623L229.507 509.984Z" fill="white"/>
<path d="M292.206 509.984C294.376 509.984 296.245 511.516 296.671 513.644L305.062 555.6C305.442 557.5 303.988 559.274 302.05 559.274H297.339L276.687 509.984H292.206Z" fill="white"/>
<path d="M101.356 567.988H114.205C116.339 567.988 118.071 569.72 118.071 571.855V605.969C118.071 607.638 116.718 608.99 115.05 608.99H106.071L101.356 598.704V567.988Z" fill="#0A492C"/>
<path d="M105.213 592.846H113.785V571.416H105.213V592.846Z" fill="#CDC12D"/>
<path d="M106.069 619.706H118.07V612.563H106.069V619.706Z" fill="#CDC12D"/>
<path d="M268.88 585.92V503.555" stroke="#0A492C" stroke-width="1.29772" stroke-miterlimit="10"/>
<path d="M190.075 557.986V627.42" stroke="#0A492C" stroke-width="1.29772" stroke-miterlimit="10"/>
<path d="M169.971 670.069C182.011 658.029 182.011 638.508 169.971 626.468C157.931 614.428 138.41 614.428 126.37 626.468C114.33 638.508 114.33 658.029 126.37 670.069C138.41 682.109 157.931 682.109 169.971 670.069Z" fill="#351216"/>
<path d="M148.174 675.866C163.415 675.866 175.77 663.51 175.77 648.269C175.77 633.029 163.415 620.673 148.174 620.673C132.933 620.673 120.578 633.029 120.578 648.269C120.578 663.51 132.933 675.866 148.174 675.866Z" fill="#210B0D"/>
<path d="M132.517 648.27C132.517 656.917 139.527 663.927 148.174 663.927C156.821 663.927 163.831 656.917 163.831 648.27C163.831 639.622 156.821 632.613 148.174 632.613C139.527 632.611 132.517 639.621 132.517 648.27Z" stroke="#1D1D1B" stroke-width="0.36751" stroke-miterlimit="10"/>
<path d="M152.4 666.105C162.265 663.776 168.374 653.891 166.045 644.026C163.715 634.161 153.83 628.052 143.965 630.381C134.1 632.711 127.991 642.596 130.32 652.461C132.65 662.326 142.535 668.435 152.4 666.105Z" fill="#CDC12D"/>
<path d="M141.083 648.27C141.083 652.187 144.258 655.361 148.174 655.361C152.091 655.361 155.266 652.187 155.266 648.27C155.266 644.353 152.091 641.178 148.174 641.178C144.258 641.177 141.083 644.353 141.083 648.27Z" fill="#00552B"/>
<path d="M238.935 575.417H256.65C258.693 575.417 260.363 573.745 260.363 571.703C260.363 569.66 258.692 567.988 256.65 567.988H238.933C236.89 567.988 235.218 569.66 235.218 571.703C235.221 573.745 236.893 575.417 238.935 575.417Z" fill="#0A492C"/>
<path d="M138.216 557.987H166.932V543.843H138.216V557.987Z" fill="#CDC12D"/>
<path d="M138.216 557.988H166.932V553.835H138.216V557.988Z" fill="#A0931D"/>
<path d="M190.075 616.133H249.513" stroke="#0A492C" stroke-width="1.29772" stroke-miterlimit="10"/>
<path d="M102.355 563.409H116.94C120.721 563.409 123.785 566.473 123.785 570.254V627.421" stroke="#0A492C" stroke-width="1.29772" stroke-miterlimit="10"/>
<path d="M260.365 571.701H235.389" stroke="#127149" stroke-width="1.29772" stroke-miterlimit="10"/>
<path d="M399.955 679.1H406.242V648.565H399.955V679.1Z" fill="#210B0D"/>
<path d="M369.187 679.1H375.473V648.565H369.187V679.1Z" fill="#210B0D"/>
<path d="M441.079 678.574C452.29 675.972 459.269 664.774 456.667 653.562C454.065 642.351 442.867 635.372 431.656 637.974C420.444 640.577 413.465 651.775 416.068 662.986C418.67 674.197 429.868 681.176 441.079 678.574Z" fill="#351216"/>
<path d="M453.562 665.55C457.593 656.07 453.175 645.116 443.695 641.085C434.214 637.054 423.261 641.472 419.23 650.953C415.198 660.433 419.616 671.387 429.097 675.418C438.578 679.449 449.531 675.031 453.562 665.55Z" fill="#210B0D"/>
<path d="M446.137 662.405C448.418 657.023 445.905 650.811 440.523 648.53C435.142 646.249 428.93 648.762 426.648 654.144C424.367 659.525 426.88 665.737 432.262 668.018C437.643 670.3 443.855 667.787 446.137 662.405Z" stroke="#1D1D1B" stroke-width="0.248391" stroke-miterlimit="10"/>
<path d="M447.798 663.108C450.473 656.801 447.529 649.519 441.222 646.844C434.914 644.168 427.632 647.113 424.957 653.42C422.282 659.727 425.226 667.009 431.533 669.684C437.84 672.36 445.122 669.416 447.798 663.108Z" fill="#CDC12D"/>
<path d="M431.583 658.259C431.583 660.906 433.729 663.052 436.376 663.052C439.023 663.052 441.17 660.906 441.17 658.259C441.17 655.612 439.023 653.466 436.376 653.466C433.729 653.467 431.583 655.612 431.583 658.259Z" fill="#00552B"/>
<path d="M385.633 607.897L396.848 617.978C396.848 617.978 389.065 625.654 385.633 607.897Z" fill="#7DBB77"/>
<path d="M385.633 607.897L396.848 617.978C396.848 617.978 403.654 609.423 385.633 607.897Z" fill="#569171"/>
<path d="M475.441 614.589L456.472 615.956C456.472 615.956 456.312 602.17 475.441 614.589Z" fill="#7DBB77"/>
<path d="M475.441 614.589L456.472 615.956C456.472 615.956 458.29 629.621 475.441 614.589Z" fill="#569171"/>
<path d="M443.636 571.131L434.919 592.695C434.919 592.695 419.695 585.447 443.636 571.131Z" fill="#7DBB77"/>
<path d="M443.636 571.131L434.919 592.695C434.919 592.695 450.902 598.062 443.636 571.131Z" fill="#569171"/>
<path d="M585.752 763.479H591.486V687.839H585.752V763.479Z" fill="#872A21"/>
<path d="M581.991 554.246C584.827 547.599 592.409 547.599 595.245 554.246C606.586 580.829 628.503 636.288 628.488 667.782C628.482 678.293 617.257 686.748 606.72 692.369C595.16 698.537 582.076 698.537 570.516 692.369C559.979 686.748 548.754 678.293 548.748 667.782C548.732 636.288 570.65 580.829 581.991 554.246Z" fill="#569171"/>
<path d="M581.72 686.932C592.832 682.556 604.953 675.446 606.164 665.006C609.743 634.169 594.827 577.782 586.532 549.635C589.731 548.494 593.443 550.024 595.245 554.245C606.586 580.829 628.504 636.287 628.488 667.782C628.482 678.292 617.257 686.748 606.72 692.369C595.16 698.537 582.076 698.537 570.516 692.369C568.936 691.525 567.34 690.617 565.767 689.649C571.073 689.889 576.472 688.998 581.72 686.932Z" fill="#3A6D50"/>
<path d="M16.5132 767.265H21.3252L21.3252 703.781H16.5132L16.5132 767.265Z" fill="#872A21"/>
<path d="M13.3577 591.655C15.7373 586.077 22.1008 586.077 24.4803 591.655C33.9984 613.967 52.3953 660.512 52.381 686.946C52.3767 695.768 42.9559 702.863 34.1113 707.582C24.4088 712.759 13.4278 712.759 3.72525 707.582C-5.11787 702.865 -14.5387 695.768 -14.5444 686.946C-14.5573 660.512 3.83965 613.967 13.3577 591.655Z" fill="#569171"/>
<path d="M13.1289 703.019C22.4553 699.347 32.6283 693.38 33.6451 684.617C36.6481 658.737 24.1313 611.409 17.1686 587.787C19.8527 586.829 22.9701 588.113 24.4816 591.657C33.9997 613.969 52.3967 660.514 52.3824 686.948C52.3781 695.769 42.9572 702.865 34.1127 707.584C24.4101 712.761 13.4292 712.761 3.72662 707.584C2.39958 706.876 1.05967 706.114 -0.258789 705.3C4.19423 705.502 8.72447 704.754 13.1289 703.019Z" fill="#3A6D50"/>
<path d="M-33 1001.32V712.758C60.8194 680.18 166.526 661.865 278.342 661.865C590.164 661.865 854.491 804.288 945.945 1001.32H-33Z" fill="#AFB557"/>
<path d="M-33 1001.32V691.805C25.2267 680.845 86.4422 674.997 149.61 674.997C454.458 674.997 713.903 811.125 810.81 1001.32H-33Z" fill="#C9C95A"/>
<path d="M-33 1001.32V685.248C-4.44004 682.77 24.6504 681.487 54.1685 681.487C355.54 681.487 612.533 814.527 711.987 1001.32H-33V1001.32Z" fill="#AFB557"/>
<path d="M-33 1001.32V703.389C236.812 718.364 463.446 837.304 560.466 1001.32H-33Z" fill="#C9C95A"/>
<path d="M-33 1001.32V740.7C171.021 772.918 342.602 872.019 439.751 1001.32H-33Z" fill="#AFB557"/>
<path d="M157.701 919.51L158.067 845.875C158.067 845.875 123.122 891.19 157.701 919.51Z" fill="#336D4C"/>
<path d="M157.701 919.51L158.067 845.875C158.067 845.875 192.558 891.535 157.701 919.51Z" fill="#336D4C"/>
<path d="M157.822 895.101L173.311 883.311" stroke="#245B3C" stroke-width="0.966108" stroke-miterlimit="10"/>
<path d="M160.119 930.077L106.218 879.907C106.218 879.907 115.862 936.315 160.119 930.077Z" fill="#336D4C"/>
<path d="M160.119 930.077L106.218 879.907C106.218 879.907 163.17 885.487 160.119 930.077Z" fill="#336D4C"/>
<path d="M142.252 913.447L144.08 894.068" stroke="#245B3C" stroke-width="0.966108" stroke-miterlimit="10"/>
<path d="M163.148 930.42L133.229 863.136C133.229 863.136 119.988 918.809 163.148 930.42Z" fill="#569171"/>
<path d="M163.148 930.42L133.229 863.136C133.229 863.136 183.435 890.595 163.148 930.42Z" fill="#569171"/>
<path d="M153.231 908.118L162.509 891.005" stroke="#245B3C" stroke-width="0.966108" stroke-miterlimit="10"/>
<path d="M156.893 930.077L210.794 879.907C210.794 879.907 201.151 936.315 156.893 930.077Z" fill="#336D4C"/>
<path d="M156.893 930.077L210.794 879.907C210.794 879.907 153.841 885.487 156.893 930.077Z" fill="#336D4C"/>
<path d="M174.759 913.447L172.933 894.068" stroke="#245B3C" stroke-width="0.966108" stroke-miterlimit="10"/>
<path d="M153.865 930.42L183.784 863.136C183.784 863.136 197.025 918.809 153.865 930.42Z" fill="#569171"/>
<path d="M153.865 930.42L183.784 863.136C183.784 863.136 133.577 890.595 153.865 930.42Z" fill="#569171"/>
<path d="M118.988 941.287C119.548 932.761 126.623 926.013 135.29 926.013C137.35 926.013 139.315 926.411 141.133 927.107C144.711 919.837 152.17 914.822 160.82 914.822C172.031 914.822 181.261 923.232 182.591 934.083C184.739 932.633 187.329 931.786 190.116 931.786C196.173 931.786 201.296 935.786 202.99 941.287H118.988Z" fill="#872A21"/>
<path d="M571.56 919.51L571.926 845.875C571.926 845.875 536.981 891.19 571.56 919.51Z" fill="#336D4C"/>
<path d="M571.56 919.51L571.926 845.875C571.926 845.875 606.419 891.535 571.56 919.51Z" fill="#336D4C"/>
<path d="M571.681 895.101L587.171 883.311" stroke="#245B3C" stroke-width="0.966108" stroke-miterlimit="10"/>
<path d="M573.979 930.077L520.078 879.907C520.078 879.907 529.721 936.315 573.979 930.077Z" fill="#336D4C"/>
<path d="M573.979 930.077L520.078 879.907C520.078 879.907 577.031 885.487 573.979 930.077Z" fill="#336D4C"/>
<path d="M556.113 913.447L557.939 894.068" stroke="#245B3C" stroke-width="0.966108" stroke-miterlimit="10"/>
<path d="M577.006 930.42L547.088 863.136C547.088 863.136 533.846 918.809 577.006 930.42Z" fill="#569171"/>
<path d="M577.006 930.42L547.088 863.136C547.088 863.136 597.294 890.595 577.006 930.42Z" fill="#569171"/>
<path d="M567.089 908.118L576.367 891.005" stroke="#245B3C" stroke-width="0.966108" stroke-miterlimit="10"/>
<path d="M570.751 930.077L624.652 879.907C624.652 879.907 615.01 936.315 570.751 930.077Z" fill="#336D4C"/>
<path d="M570.752 930.077L624.653 879.907C624.653 879.907 567.7 885.487 570.752 930.077Z" fill="#336D4C"/>
<path d="M588.618 913.447L586.792 894.068" stroke="#245B3C" stroke-width="0.966108" stroke-miterlimit="10"/>
<path d="M567.725 930.42L597.643 863.136C597.643 863.136 610.885 918.809 567.725 930.42Z" fill="#569171"/>
<path d="M567.724 930.42L597.643 863.136C597.643 863.136 547.437 890.595 567.724 930.42Z" fill="#569171"/>
<path d="M532.848 941.287C533.408 932.761 540.482 926.013 549.15 926.013C551.212 926.013 553.175 926.411 554.993 927.107C558.57 919.837 566.029 914.822 574.679 914.822C585.891 914.822 595.121 923.232 596.451 934.083C598.6 932.633 601.189 931.786 603.976 931.786C610.033 931.786 615.156 935.786 616.85 941.287H532.848Z" fill="#872A21"/>
<path d="M840.909 919.51L841.275 845.875C841.275 845.875 806.332 891.19 840.909 919.51Z" fill="#336D4C"/>
<path d="M840.909 919.51L841.275 845.875C841.275 845.875 875.768 891.535 840.909 919.51Z" fill="#336D4C"/>
<path d="M841.03 895.101L856.52 883.311" stroke="#245B3C" stroke-width="0.966108" stroke-miterlimit="10"/>
<path d="M843.328 930.077L789.427 879.907C789.427 879.907 799.07 936.315 843.328 930.077Z" fill="#336D4C"/>
<path d="M843.328 930.077L789.427 879.907C789.427 879.907 846.38 885.487 843.328 930.077Z" fill="#336D4C"/>
<path d="M825.462 913.447L827.288 894.068" stroke="#245B3C" stroke-width="0.966108" stroke-miterlimit="10"/>
<path d="M846.356 930.42L816.437 863.136C816.437 863.136 803.196 918.809 846.356 930.42Z" fill="#569171"/>
<path d="M846.356 930.42L816.438 863.136C816.438 863.136 866.643 890.595 846.356 930.42Z" fill="#569171"/>
<path d="M836.438 908.118L845.716 891.005" stroke="#245B3C" stroke-width="0.966108" stroke-miterlimit="10"/>
<path d="M840.101 930.077L894.002 879.907C894.002 879.907 884.359 936.315 840.101 930.077Z" fill="#336D4C"/>
<path d="M840.101 930.077L894.002 879.907C894.002 879.907 837.051 885.487 840.101 930.077Z" fill="#336D4C"/>
<path d="M857.968 913.447L856.142 894.068" stroke="#245B3C" stroke-width="0.966108" stroke-miterlimit="10"/>
<path d="M837.073 930.42L866.992 863.136C866.992 863.136 880.234 918.809 837.073 930.42Z" fill="#569171"/>
<path d="M837.073 930.42L866.992 863.136C866.992 863.136 816.786 890.595 837.073 930.42Z" fill="#569171"/>
<path d="M802.197 941.287C802.758 932.761 809.832 926.013 818.499 926.013C820.56 926.013 822.525 926.411 824.342 927.107C827.92 919.837 835.379 914.822 844.029 914.822C855.24 914.822 864.471 923.232 865.801 934.083C867.95 932.633 870.538 931.786 873.325 931.786C879.383 931.786 884.505 935.786 886.2 941.287H802.197Z" fill="#872A21"/>
<path d="M692.379 787.896L692.657 731.969C692.657 731.969 666.116 766.387 692.379 787.896Z" fill="#336D4C"/>
<path d="M692.379 787.896L692.657 731.969C692.657 731.969 718.856 766.649 692.379 787.896Z" fill="#336D4C"/>
<path d="M692.473 769.357L704.237 760.402" stroke="#245B3C" stroke-width="0.733733" stroke-miterlimit="10"/>
<path d="M694.217 795.923L653.277 757.818C653.277 757.818 660.602 800.66 694.217 795.923Z" fill="#336D4C"/>
<path d="M694.217 795.923L653.277 757.818C653.277 757.818 696.535 762.056 694.217 795.923Z" fill="#336D4C"/>
<path d="M680.646 783.293L682.034 768.573" stroke="#245B3C" stroke-width="0.733733" stroke-miterlimit="10"/>
<path d="M696.516 796.184L673.792 745.08C673.792 745.08 663.735 787.364 696.516 796.184Z" fill="#569171"/>
<path d="M696.517 796.184L673.792 745.081C673.792 745.081 711.926 765.936 696.517 796.184Z" fill="#569171"/>
<path d="M688.985 779.245L696.03 766.248" stroke="#245B3C" stroke-width="0.733733" stroke-miterlimit="10"/>
<path d="M691.766 795.923L732.706 757.818C732.706 757.818 725.381 800.661 691.766 795.923Z" fill="#336D4C"/>
<path d="M691.766 795.923L732.706 757.818C732.706 757.818 689.448 762.056 691.766 795.923Z" fill="#336D4C"/>
<path d="M705.337 783.293L703.949 768.573" stroke="#245B3C" stroke-width="0.733733" stroke-miterlimit="10"/>
<path d="M689.466 796.184L712.19 745.08C712.19 745.08 722.248 787.364 689.466 796.184Z" fill="#569171"/>
<path d="M689.466 796.184L712.19 745.08C712.19 745.08 674.057 765.935 689.466 796.184Z" fill="#569171"/>
<path d="M662.977 804.437C663.403 797.962 668.776 792.837 675.359 792.837C676.925 792.837 678.417 793.138 679.797 793.667C682.514 788.146 688.179 784.337 694.75 784.337C703.266 784.337 710.276 790.724 711.285 798.966C712.917 797.864 714.885 797.221 717.001 797.221C721.601 797.221 725.492 800.258 726.779 804.437H662.977Z" fill="#872A21"/>
<path d="M525.98 712.008L526.169 674.013C526.169 674.013 508.138 697.396 525.98 712.008Z" fill="#336D4C"/>
<path d="M525.98 712.008L526.169 674.013C526.169 674.013 543.967 697.575 525.98 712.008Z" fill="#336D4C"/>
<path d="M526.043 699.414L534.036 693.331" stroke="#245B3C" stroke-width="0.498498" stroke-miterlimit="10"/>
<path d="M527.229 717.462L499.417 691.575C499.417 691.575 504.393 720.679 527.229 717.462Z" fill="#336D4C"/>
<path d="M527.229 717.462L499.417 691.575C499.417 691.575 528.803 694.453 527.229 717.462Z" fill="#336D4C"/>
<path d="M518.009 708.882L518.952 698.882" stroke="#245B3C" stroke-width="0.498498" stroke-miterlimit="10"/>
<path d="M528.791 717.64L513.353 682.922C513.353 682.922 506.521 711.648 528.791 717.64Z" fill="#569171"/>
<path d="M528.791 717.64L513.353 682.922C513.353 682.922 539.259 697.089 528.791 717.64Z" fill="#569171"/>
<path d="M523.674 706.132L528.461 697.301" stroke="#245B3C" stroke-width="0.498498" stroke-miterlimit="10"/>
<path d="M525.564 717.462L553.376 691.575C553.376 691.575 548.4 720.68 525.564 717.462Z" fill="#336D4C"/>
<path d="M525.564 717.462L553.376 691.575C553.376 691.575 523.99 694.453 525.564 717.462Z" fill="#336D4C"/>
<path d="M534.783 708.882L533.841 698.882" stroke="#245B3C" stroke-width="0.498498" stroke-miterlimit="10"/>
<path d="M524.001 717.64L539.439 682.922C539.439 682.922 546.272 711.648 524.001 717.64Z" fill="#569171"/>
<path d="M524.001 717.639L539.439 682.922C539.439 682.922 513.533 697.089 524.001 717.639Z" fill="#569171"/>
<path d="M506.006 723.246C506.295 718.847 509.945 715.365 514.417 715.365C515.481 715.365 516.495 715.57 517.432 715.93C519.278 712.179 523.126 709.591 527.59 709.591C533.375 709.591 538.138 713.93 538.824 719.53C539.933 718.782 541.27 718.344 542.707 718.344C545.833 718.344 548.475 720.408 549.349 723.246H506.006Z" fill="#872A21"/>
<path d="M210.378 719.795L210.567 681.8C210.567 681.8 192.536 705.183 210.378 719.795Z" fill="#336D4C"/>
<path d="M210.377 719.795L210.566 681.8C210.566 681.8 228.364 705.361 210.377 719.795Z" fill="#336D4C"/>
<path d="M210.441 707.201L218.433 701.118" stroke="#245B3C" stroke-width="0.498498" stroke-miterlimit="10"/>
<path d="M211.626 725.248L183.814 699.361C183.814 699.361 188.79 728.466 211.626 725.248Z" fill="#336D4C"/>
<path d="M211.626 725.248L183.814 699.361C183.814 699.361 213.2 702.24 211.626 725.248Z" fill="#336D4C"/>
<path d="M202.407 716.667L203.349 706.667" stroke="#245B3C" stroke-width="0.498498" stroke-miterlimit="10"/>
<path d="M213.189 725.426L197.751 690.708C197.751 690.708 190.918 719.434 213.189 725.426Z" fill="#569171"/>
<path d="M213.189 725.426L197.75 690.708C197.75 690.708 223.656 704.875 213.189 725.426Z" fill="#569171"/>
<path d="M208.071 713.917L212.858 705.087" stroke="#245B3C" stroke-width="0.498498" stroke-miterlimit="10"/>
<path d="M209.961 725.248L237.773 699.361C237.773 699.361 232.797 728.466 209.961 725.248Z" fill="#336D4C"/>
<path d="M209.961 725.248L237.773 699.361C237.773 699.361 208.387 702.24 209.961 725.248Z" fill="#336D4C"/>
<path d="M219.179 716.667L218.236 706.667" stroke="#245B3C" stroke-width="0.498498" stroke-miterlimit="10"/>
<path d="M208.398 725.426L223.836 690.708C223.836 690.708 230.669 719.434 208.398 725.426Z" fill="#569171"/>
<path d="M208.398 725.426L223.837 690.709C223.837 690.709 197.931 704.876 208.398 725.426Z" fill="#569171"/>
<path d="M190.403 731.033C190.692 726.635 194.343 723.153 198.815 723.153C199.879 723.153 200.892 723.357 201.829 723.717C203.675 719.966 207.525 717.378 211.988 717.378C217.772 717.378 222.535 721.717 223.222 727.317C224.33 726.569 225.666 726.131 227.104 726.131C230.23 726.131 232.873 728.195 233.747 731.033H190.403Z" fill="#872A21"/>
<path d="M69.7128 685.625L69.8644 655.143C69.8644 655.143 55.3985 673.902 69.7128 685.625Z" fill="#336D4C"/>
<path d="M69.7129 685.625L69.8645 655.143C69.8645 655.143 84.1416 674.045 69.7129 685.625Z" fill="#336D4C"/>
<path d="M69.7627 675.522L76.1748 670.641" stroke="#245B3C" stroke-width="0.399971" stroke-miterlimit="10"/>
<path d="M70.7137 690.001L48.4014 669.233C48.4014 669.233 52.3925 692.582 70.7137 690.001Z" fill="#336D4C"/>
<path d="M70.7137 690.001L48.4014 669.233C48.4014 669.233 71.9763 671.542 70.7137 690.001Z" fill="#336D4C"/>
<path d="M63.3174 683.117L64.0724 675.094" stroke="#245B3C" stroke-width="0.399971" stroke-miterlimit="10"/>
<path d="M71.9664 690.142L59.5811 662.289C59.5811 662.289 54.0999 685.336 71.9664 690.142Z" fill="#569171"/>
<path d="M71.9663 690.142L59.5811 662.289C59.5811 662.289 80.3647 673.656 71.9663 690.142Z" fill="#569171"/>
<path d="M67.8608 680.91L71.7018 673.826" stroke="#245B3C" stroke-width="0.399971" stroke-miterlimit="10"/>
<path d="M69.3789 690.001L91.6926 669.233C91.6926 669.233 87.7001 692.582 69.3789 690.001Z" fill="#336D4C"/>
<path d="M69.3787 690.001L91.6924 669.233C91.6924 669.233 68.1145 671.542 69.3787 690.001Z" fill="#336D4C"/>
<path d="M76.7745 683.117L76.0181 675.094" stroke="#245B3C" stroke-width="0.399971" stroke-miterlimit="10"/>
<path d="M68.124 690.142L80.5092 662.289C80.5092 662.289 85.9904 685.336 68.124 690.142Z" fill="#569171"/>
<path d="M68.1243 690.142L80.5095 662.289C80.5095 662.289 59.7259 673.656 68.1243 690.142Z" fill="#569171"/>
<path d="M53.6865 694.641C53.9182 691.112 56.8468 688.319 60.4347 688.319C61.2884 688.319 62.1006 688.483 62.8528 688.771C64.3343 685.761 67.4217 683.684 71.0024 683.684C75.6427 683.684 79.4651 687.165 80.0143 691.658C80.9037 691.057 81.9762 690.707 83.1288 690.707C85.637 690.707 87.7563 692.363 88.4584 694.64L53.6865 694.641Z" fill="#872A21"/>
<path d="M393.119 787.896L393.397 731.969C393.397 731.969 366.856 766.387 393.119 787.896Z" fill="#336D4C"/>
<path d="M393.119 787.896L393.397 731.969C393.397 731.969 419.594 766.649 393.119 787.896Z" fill="#336D4C"/>
<path d="M393.211 769.357L404.976 760.402" stroke="#245B3C" stroke-width="0.733733" stroke-miterlimit="10"/>
<path d="M394.955 795.923L354.016 757.818C354.016 757.818 361.342 800.66 394.955 795.923Z" fill="#336D4C"/>
<path d="M394.955 795.923L354.016 757.818C354.016 757.818 397.273 762.056 394.955 795.923Z" fill="#336D4C"/>
<path d="M381.386 783.293L382.773 768.573" stroke="#245B3C" stroke-width="0.733733" stroke-miterlimit="10"/>
<path d="M397.256 796.184L374.532 745.08C374.532 745.08 364.475 787.364 397.256 796.184Z" fill="#569171"/>
<path d="M397.256 796.184L374.532 745.081C374.532 745.081 412.665 765.936 397.256 796.184Z" fill="#569171"/>
<path d="M389.723 779.245L396.77 766.248" stroke="#245B3C" stroke-width="0.733733" stroke-miterlimit="10"/>
<path d="M392.505 795.923L433.445 757.818C433.445 757.818 426.12 800.661 392.505 795.923Z" fill="#336D4C"/>
<path d="M392.505 795.923L433.445 757.818C433.445 757.818 390.187 762.056 392.505 795.923Z" fill="#336D4C"/>
<path d="M406.075 783.293L404.688 768.573" stroke="#245B3C" stroke-width="0.733733" stroke-miterlimit="10"/>
<path d="M390.205 796.184L412.929 745.08C412.929 745.08 422.986 787.364 390.205 796.184Z" fill="#569171"/>
<path d="M390.205 796.184L412.929 745.08C412.929 745.08 374.796 765.935 390.205 796.184Z" fill="#569171"/>
<path d="M363.715 804.437C364.141 797.962 369.514 792.837 376.098 792.837C377.664 792.837 379.155 793.138 380.535 793.667C383.252 788.146 388.918 784.337 395.488 784.337C404.003 784.337 411.014 790.724 412.025 798.966C413.657 797.864 415.623 797.221 417.741 797.221C422.341 797.221 426.232 800.258 427.519 804.437H363.715Z" fill="#872A21"/>
<path d="M938.832 986.791C938.832 986.791 1271.86 926.845 1454.2 939.204" stroke="#C9C95A" stroke-width="0.926926" stroke-miterlimit="10"/>
<path d="M436.625 507.264H756.184C756.184 507.264 754.976 492.162 729.605 493.37C728.396 468.603 693.36 453.501 670.404 473.435C687.318 431.753 677.049 400.945 648.053 397.925C619.057 394.905 599.727 425.109 594.29 443.835C576.771 425.108 573.147 440.815 572.544 443.835C545.964 414.839 510.323 424.505 499.449 435.982C488.575 447.459 490.992 474.643 490.992 474.643C490.992 474.643 452.936 458.333 444.477 475.852C436.02 493.37 451.122 499.411 451.122 499.411C451.122 499.411 438.437 496.996 436.625 507.264Z" fill="white"/>
<path d="M189.425 439.9H70.2173C70.2173 439.9 70.6677 434.266 80.1329 434.717C80.5834 425.477 93.6536 419.843 102.216 427.281C95.9072 411.732 99.7382 400.239 110.555 399.112C121.371 397.986 128.583 409.253 130.61 416.238C137.146 409.253 138.497 415.111 138.723 416.238C148.638 405.422 161.933 409.027 165.99 413.308C170.046 417.589 169.145 427.73 169.145 427.73C169.145 427.73 183.342 421.645 186.496 428.18C189.651 434.715 184.018 436.969 184.018 436.969C184.018 436.969 188.749 436.069 189.425 439.9Z" fill="white"/>
<path d="M1406.9 718.426H1306.48C1306.48 718.426 1306.86 713.68 1314.84 714.06C1315.22 706.277 1326.23 701.532 1333.44 707.796C1328.12 694.697 1331.35 685.016 1340.46 684.066C1349.58 683.117 1355.65 692.609 1357.36 698.493C1362.86 692.609 1364 697.544 1364.19 698.493C1372.55 689.381 1383.75 692.419 1387.16 696.025C1390.58 699.632 1389.82 708.175 1389.82 708.175C1389.82 708.175 1401.78 703.049 1404.44 708.555C1407.09 714.06 1402.35 715.958 1402.35 715.958C1402.35 715.958 1406.34 715.199 1406.9 718.426Z" fill="white"/>
<path d="M1003.71 1001.32H1454.2C1454.2 1001.32 1454.2 1001.32 1454.2 973.804C1296.17 965.96 1099.46 988.443 1003.71 1001.32Z" fill="#C9C95A"/>
</g>
<defs>
<linearGradient id="paint0_linear_558_311" x1="711" y1="-24" x2="711" y2="1038" gradientUnits="userSpaceOnUse">
<stop stop-color="#D0EAFC"/>
<stop offset="0.519231" stop-color="#E8FFF2"/>
</linearGradient>
</defs>
</svg>
